<svg width="572" height="497" viewBox="0 0 572 497" fill="none" xmlns="http://www.w3.org/2000/svg">
<rect x="245" width="327" height="242" rx="14" fill="white"/>
<path d="M510.25 54.5C499.892 54.5 491.5 62.8963 491.5 73.25C491.5 75.3762 491.931 77.3825 492.58 79.2875L446.875 118.644C443.669 116.09 439.667 114.5 435.25 114.5C430.154 114.5 425.545 116.548 422.17 119.848L386.369 101.922C385.671 92.1987 377.65 84.5 367.75 84.5C357.396 84.5 349 92.8963 349 103.25C349 106.085 349.675 108.744 350.8 111.151L314.297 153.241C312.25 152.476 310.064 152 307.75 152C297.396 152 289 160.396 289 170.75C289 181.104 297.396 189.5 307.75 189.5C318.104 189.5 326.5 181.104 326.5 170.75C326.5 168.256 325.99 165.883 325.105 163.708L362.2 121.07C363.966 121.618 365.804 122 367.75 122C373.206 122 378.074 119.63 381.501 115.906L416.519 133.464C416.642 143.716 424.967 152 435.25 152C445.608 152 454 143.604 454 133.25C454 132.916 453.921 132.605 453.902 132.275L502.675 90.3762C504.996 91.4037 507.546 92 510.25 92C520.608 92 529 83.6075 529 73.25C529 62.8963 520.608 54.5 510.25 54.5Z" fill="#4338CA"/>
<rect y="255" width="327" height="242" rx="14" fill="white"/>
<path d="M153.52 401.391H119.615C117.609 401.391 115.984 403.016 115.984 405.022V457.664C115.984 459.67 117.609 461.295 119.615 461.295H153.52C155.526 461.295 157.149 459.67 157.149 457.664V405.02C157.149 403.014 155.524 401.391 153.52 401.391ZM206.385 292.707H172.48C170.474 292.707 168.849 294.332 168.849 296.338V457.662C168.849 459.668 170.474 461.293 172.48 461.293H206.385C208.391 461.293 210.016 459.668 210.016 457.662V296.338C210.016 294.332 208.391 292.707 206.385 292.707ZM259.521 341.718H225.616C223.61 341.718 221.985 343.342 221.985 345.349V457.662C221.985 459.668 223.61 461.293 225.616 461.293H259.518C261.525 461.293 263.15 459.668 263.15 457.662V345.349C263.15 343.345 261.525 341.718 259.521 341.718ZM100.384 341.718H66.4792C64.4728 341.718 62.848 343.342 62.848 345.349V457.662C62.848 459.668 64.4728 461.293 66.4792 461.293H100.384C102.39 461.293 104.015 459.668 104.015 457.662V345.349C104.015 343.345 102.39 341.718 100.384 341.718Z" fill="#4338CA"/>
<rect y="2" width="230" height="240" rx="14" fill="#881337"/>
<path d="M69.4375 110H56.9062V87.4062C56.9062 86.9896 56.9062 86.2292 56.9062 85.125C56.9062 84 56.9167 82.7604 56.9375 81.4062C56.9792 80.0521 57.0312 78.8333 57.0938 77.75C56.5521 78.3958 56.0417 78.9479 55.5625 79.4062C55.1042 79.8646 54.6562 80.2917 54.2188 80.6875L49.0312 84.9688L42.625 77.0938L58.3125 64.3125H69.4375V110ZM112.562 110H79.4062V101.875L90.5625 90.5938C92.875 88.1771 94.6667 86.2396 95.9375 84.7812C97.2292 83.3229 98.1354 82.0833 98.6562 81.0625C99.1771 80.0417 99.4375 78.9792 99.4375 77.875C99.4375 76.5208 99 75.5417 98.125 74.9375C97.25 74.3333 96.2188 74.0312 95.0312 74.0312C93.5938 74.0312 92.1354 74.4479 90.6562 75.2812C89.1979 76.0938 87.5417 77.3021 85.6875 78.9062L78.9062 70.9688C80.2812 69.7396 81.7396 68.5729 83.2812 67.4688C84.8229 66.3438 86.6458 65.4271 88.75 64.7188C90.8542 64.0104 93.4167 63.6562 96.4375 63.6562C99.5417 63.6562 102.229 64.1979 104.5 65.2812C106.792 66.3646 108.562 67.8542 109.812 69.75C111.062 71.625 111.688 73.7604 111.688 76.1562C111.688 78.8021 111.198 81.1667 110.219 83.25C109.26 85.3125 107.812 87.3854 105.875 89.4688C103.938 91.5312 101.521 93.875 98.625 96.5L95.2812 99.5V99.8125H112.562V110ZM121.531 110L137.219 74.5312H117.438V64.3125H150.406V71.5938L134.312 110H121.531ZM171.375 63.6562C174.396 63.6562 177.042 64.0625 179.312 64.875C181.604 65.6875 183.396 66.9271 184.688 68.5938C185.979 70.2396 186.625 72.3125 186.625 74.8125C186.625 76.6458 186.281 78.2604 185.594 79.6562C184.927 81.0312 184 82.2396 182.812 83.2812C181.646 84.3021 180.292 85.1875 178.75 85.9375C180.188 86.75 181.615 87.6979 183.031 88.7812C184.448 89.8646 185.625 91.1458 186.562 92.625C187.5 94.0833 187.969 95.8229 187.969 97.8438C187.969 100.281 187.375 102.469 186.188 104.406C185 106.323 183.177 107.844 180.719 108.969C178.26 110.073 175.104 110.625 171.25 110.625C167.396 110.625 164.24 110.094 161.781 109.031C159.323 107.969 157.51 106.49 156.344 104.594C155.198 102.677 154.625 100.469 154.625 97.9688C154.625 95.8438 154.979 94.0521 155.688 92.5938C156.417 91.1354 157.406 89.8958 158.656 88.875C159.906 87.8542 161.333 86.9375 162.938 86.125C161.667 85.2708 160.5 84.3021 159.438 83.2188C158.375 82.1354 157.531 80.8958 156.906 79.5C156.281 78.1042 155.969 76.5208 155.969 74.75C155.969 72.2917 156.625 70.2396 157.938 68.5938C159.25 66.9479 161.062 65.7188 163.375 64.9062C165.708 64.0729 168.375 63.6562 171.375 63.6562ZM165.938 97.4688C165.938 98.7396 166.396 99.7708 167.312 100.562C168.229 101.354 169.5 101.75 171.125 101.75C173.021 101.75 174.406 101.396 175.281 100.688C176.177 99.9583 176.625 98.9688 176.625 97.7188C176.625 96.7812 176.344 95.9375 175.781 95.1875C175.24 94.4167 174.604 93.75 173.875 93.1875C173.146 92.625 172.51 92.1875 171.969 91.875L171.125 91.375C170.188 91.8542 169.323 92.3958 168.531 93C167.76 93.5833 167.135 94.25 166.656 95C166.177 95.7292 165.938 96.5521 165.938 97.4688ZM171.312 72.5625C170.292 72.5625 169.406 72.8646 168.656 73.4688C167.906 74.0521 167.531 74.8542 167.531 75.875C167.531 76.5417 167.688 77.1667 168 77.75C168.333 78.3125 168.771 78.8333 169.312 79.3125C169.875 79.7917 170.5 80.2292 171.188 80.625C171.792 80.2708 172.385 79.8854 172.969 79.4688C173.552 79.0521 174.042 78.5521 174.438 77.9688C174.833 77.3854 175.031 76.6875 175.031 75.875C175.031 74.8542 174.656 74.0521 173.906 73.4688C173.177 72.8646 172.312 72.5625 171.312 72.5625Z" fill="white"/>
<path d="M83.4883 162.445L73.7812 191H67.1797L57.4922 162.445H63.6055L68.9766 179.438C69.0677 179.724 69.2174 180.264 69.4258 181.059C69.6341 181.84 69.8424 182.673 70.0508 183.559C70.2721 184.431 70.4219 185.154 70.5 185.727C70.5781 185.154 70.7148 184.431 70.9102 183.559C71.1185 182.686 71.3203 181.859 71.5156 181.078C71.724 180.284 71.8737 179.737 71.9648 179.438L77.375 162.445H83.4883ZM92.5898 169.164V191H86.6328V169.164H92.5898ZM89.6211 160.609C90.5065 160.609 91.2682 160.818 91.9062 161.234C92.5443 161.638 92.8633 162.4 92.8633 163.52C92.8633 164.626 92.5443 165.395 91.9062 165.824C91.2682 166.241 90.5065 166.449 89.6211 166.449C88.7227 166.449 87.9544 166.241 87.3164 165.824C86.6914 165.395 86.3789 164.626 86.3789 163.52C86.3789 162.4 86.6914 161.638 87.3164 161.234C87.9544 160.818 88.7227 160.609 89.6211 160.609ZM107.863 168.754C109.882 168.754 111.62 169.145 113.078 169.926C114.536 170.694 115.663 171.814 116.457 173.285C117.251 174.757 117.648 176.553 117.648 178.676V181.566H103.566C103.632 183.246 104.133 184.568 105.07 185.531C106.021 186.482 107.336 186.957 109.016 186.957C110.409 186.957 111.685 186.814 112.844 186.527C114.003 186.241 115.194 185.811 116.418 185.238V189.848C115.337 190.382 114.204 190.772 113.02 191.02C111.848 191.267 110.422 191.391 108.742 191.391C106.555 191.391 104.615 190.987 102.922 190.18C101.242 189.372 99.9206 188.142 98.957 186.488C98.0065 184.835 97.5312 182.751 97.5312 180.238C97.5312 177.686 97.9609 175.564 98.8203 173.871C99.6927 172.165 100.904 170.889 102.453 170.043C104.003 169.184 105.806 168.754 107.863 168.754ZM107.902 172.992C106.743 172.992 105.78 173.363 105.012 174.105C104.257 174.848 103.82 176.013 103.703 177.602H112.062C112.049 176.716 111.887 175.928 111.574 175.238C111.275 174.548 110.819 174.001 110.207 173.598C109.608 173.194 108.84 172.992 107.902 172.992ZM140.441 191L138.762 183.363C138.671 182.908 138.521 182.237 138.312 181.352C138.104 180.453 137.876 179.496 137.629 178.48C137.395 177.452 137.173 176.501 136.965 175.629C136.77 174.757 136.626 174.118 136.535 173.715H136.359C136.268 174.118 136.125 174.757 135.93 175.629C135.734 176.501 135.513 177.452 135.266 178.48C135.031 179.509 134.81 180.479 134.602 181.391C134.393 182.289 134.237 182.973 134.133 183.441L132.375 191H125.969L119.758 169.164H125.695L128.215 178.832C128.384 179.509 128.547 180.316 128.703 181.254C128.859 182.178 128.996 183.077 129.113 183.949C129.243 184.809 129.341 185.492 129.406 186H129.562C129.589 185.622 129.641 185.121 129.719 184.496C129.81 183.871 129.908 183.227 130.012 182.562C130.129 181.885 130.233 181.28 130.324 180.746C130.428 180.199 130.507 179.828 130.559 179.633L133.254 169.164H139.816L142.375 179.633C142.466 180.01 142.583 180.609 142.727 181.43C142.883 182.25 143.02 183.096 143.137 183.969C143.254 184.828 143.319 185.505 143.332 186H143.488C143.54 185.557 143.632 184.9 143.762 184.027C143.892 183.155 144.042 182.243 144.211 181.293C144.393 180.329 144.576 179.509 144.758 178.832L147.375 169.164H153.215L146.926 191H140.441ZM171.984 184.516C171.984 186 171.633 187.257 170.93 188.285C170.24 189.301 169.204 190.076 167.824 190.609C166.444 191.13 164.725 191.391 162.668 191.391C161.145 191.391 159.836 191.293 158.742 191.098C157.661 190.902 156.568 190.577 155.461 190.121V185.199C156.646 185.733 157.915 186.176 159.27 186.527C160.637 186.866 161.835 187.035 162.863 187.035C164.022 187.035 164.849 186.866 165.344 186.527C165.852 186.176 166.105 185.72 166.105 185.16C166.105 184.796 166.001 184.47 165.793 184.184C165.598 183.884 165.168 183.552 164.504 183.188C163.84 182.81 162.798 182.322 161.379 181.723C160.012 181.15 158.885 180.57 158 179.984C157.128 179.398 156.477 178.708 156.047 177.914C155.63 177.107 155.422 176.085 155.422 174.848C155.422 172.829 156.203 171.312 157.766 170.297C159.341 169.268 161.444 168.754 164.074 168.754C165.428 168.754 166.717 168.891 167.941 169.164C169.178 169.438 170.448 169.874 171.75 170.473L169.953 174.77C168.872 174.301 167.85 173.917 166.887 173.617C165.936 173.318 164.966 173.168 163.977 173.168C163.104 173.168 162.447 173.285 162.004 173.52C161.561 173.754 161.34 174.112 161.34 174.594C161.34 174.945 161.451 175.258 161.672 175.531C161.906 175.805 162.349 176.111 163 176.449C163.664 176.775 164.634 177.198 165.91 177.719C167.147 178.227 168.221 178.76 169.133 179.32C170.044 179.867 170.747 180.551 171.242 181.371C171.737 182.178 171.984 183.227 171.984 184.516Z" fill="white"/>
<rect x="342" y="257" width="230" height="240" rx="14" fill="#881337"/>
<path d="M436.312 365H403.156V356.875L414.312 345.594C416.625 343.177 418.417 341.24 419.688 339.781C420.979 338.323 421.885 337.083 422.406 336.062C422.927 335.042 423.188 333.979 423.188 332.875C423.188 331.521 422.75 330.542 421.875 329.938C421 329.333 419.969 329.031 418.781 329.031C417.344 329.031 415.885 329.448 414.406 330.281C412.948 331.094 411.292 332.302 409.438 333.906L402.656 325.969C404.031 324.74 405.49 323.573 407.031 322.469C408.573 321.344 410.396 320.427 412.5 319.719C414.604 319.01 417.167 318.656 420.188 318.656C423.292 318.656 425.979 319.198 428.25 320.281C430.542 321.365 432.312 322.854 433.562 324.75C434.812 326.625 435.438 328.76 435.438 331.156C435.438 333.802 434.948 336.167 433.969 338.25C433.01 340.312 431.562 342.385 429.625 344.469C427.688 346.531 425.271 348.875 422.375 351.5L419.031 354.5V354.812H436.312V365ZM475.281 356.156H470.25V365H458.062V356.156H439.844V347.094L458.844 319.312H470.25V346.938H475.281V356.156ZM458.062 346.938V341.625C458.062 341.146 458.073 340.542 458.094 339.812C458.115 339.083 458.135 338.354 458.156 337.625C458.198 336.875 458.229 336.25 458.25 335.75C458.292 335.229 458.323 334.948 458.344 334.906H458C457.604 335.844 457.24 336.625 456.906 337.25C456.573 337.854 456.135 338.573 455.594 339.406L450.531 346.938H458.062ZM478.438 345.688C478.438 343.062 478.625 340.458 479 337.875C479.375 335.271 480.052 332.823 481.031 330.531C482.01 328.219 483.396 326.177 485.188 324.406C486.979 322.615 489.281 321.208 492.094 320.188C494.906 319.167 498.333 318.656 502.375 318.656C503.271 318.656 504.365 318.708 505.656 318.812C506.948 318.917 508.021 319.042 508.875 319.188V328.844C508.021 328.677 507.062 328.542 506 328.438C504.938 328.312 503.635 328.25 502.094 328.25C499.01 328.25 496.573 328.719 494.781 329.656C493.01 330.573 491.729 331.896 490.938 333.625C490.146 335.354 489.688 337.427 489.562 339.844H489.938C490.479 338.844 491.135 337.948 491.906 337.156C492.698 336.344 493.667 335.708 494.812 335.25C495.958 334.771 497.344 334.531 498.969 334.531C501.635 334.531 503.927 335.115 505.844 336.281C507.76 337.427 509.229 339.104 510.25 341.312C511.271 343.521 511.781 346.208 511.781 349.375C511.781 352.792 511.125 355.719 509.812 358.156C508.521 360.573 506.667 362.427 504.25 363.719C501.854 364.99 498.99 365.625 495.656 365.625C493.198 365.625 490.917 365.229 488.812 364.438C486.729 363.646 484.906 362.438 483.344 360.812C481.802 359.167 480.594 357.094 479.719 354.594C478.865 352.073 478.438 349.104 478.438 345.688ZM495.375 355.844C496.688 355.844 497.75 355.344 498.562 354.344C499.396 353.344 499.812 351.771 499.812 349.625C499.812 347.896 499.469 346.542 498.781 345.562C498.115 344.562 497.021 344.062 495.5 344.062C494.479 344.062 493.615 344.312 492.906 344.812C492.198 345.292 491.656 345.906 491.281 346.656C490.906 347.406 490.719 348.188 490.719 349C490.719 349.812 490.802 350.625 490.969 351.438C491.156 352.25 491.438 352.99 491.812 353.656C492.208 354.302 492.698 354.833 493.281 355.25C493.865 355.646 494.562 355.844 495.375 355.844Z" fill="white"/>
<path d="M415.105 422.074C413.947 422.074 412.918 422.302 412.02 422.758C411.134 423.201 410.385 423.845 409.773 424.691C409.174 425.538 408.719 426.56 408.406 427.758C408.094 428.956 407.938 430.303 407.938 431.801C407.938 433.819 408.185 435.544 408.68 436.977C409.188 438.396 409.969 439.483 411.023 440.238C412.078 440.98 413.439 441.352 415.105 441.352C416.264 441.352 417.423 441.221 418.582 440.961C419.754 440.701 421.023 440.329 422.391 439.848V444.926C421.128 445.447 419.884 445.818 418.66 446.039C417.436 446.273 416.062 446.391 414.539 446.391C411.596 446.391 409.174 445.785 407.273 444.574C405.385 443.35 403.986 441.645 403.074 439.457C402.163 437.257 401.707 434.691 401.707 431.762C401.707 429.6 402 427.621 402.586 425.824C403.172 424.027 404.031 422.471 405.164 421.156C406.297 419.841 407.697 418.826 409.363 418.109C411.03 417.393 412.944 417.035 415.105 417.035C416.525 417.035 417.944 417.217 419.363 417.582C420.796 417.934 422.163 418.422 423.465 419.047L421.512 423.969C420.444 423.461 419.37 423.018 418.289 422.641C417.208 422.263 416.147 422.074 415.105 422.074ZM433.973 446H428.016V415.609H433.973V446ZM446.199 424.164V446H440.242V424.164H446.199ZM443.23 415.609C444.116 415.609 444.878 415.818 445.516 416.234C446.154 416.638 446.473 417.4 446.473 418.52C446.473 419.626 446.154 420.395 445.516 420.824C444.878 421.241 444.116 421.449 443.23 421.449C442.332 421.449 441.564 421.241 440.926 420.824C440.301 420.395 439.988 419.626 439.988 418.52C439.988 417.4 440.301 416.638 440.926 416.234C441.564 415.818 442.332 415.609 443.23 415.609ZM461.336 446.391C459.174 446.391 457.332 446 455.809 445.219C454.285 444.424 453.126 443.201 452.332 441.547C451.538 439.893 451.141 437.777 451.141 435.199C451.141 432.53 451.59 430.355 452.488 428.676C453.4 426.983 454.656 425.74 456.258 424.945C457.872 424.151 459.741 423.754 461.863 423.754C463.374 423.754 464.676 423.904 465.77 424.203C466.876 424.49 467.84 424.835 468.66 425.238L466.902 429.848C465.965 429.47 465.092 429.164 464.285 428.93C463.478 428.682 462.671 428.559 461.863 428.559C460.822 428.559 459.956 428.806 459.266 429.301C458.576 429.783 458.061 430.512 457.723 431.488C457.384 432.465 457.215 433.689 457.215 435.16C457.215 436.605 457.397 437.803 457.762 438.754C458.126 439.704 458.654 440.414 459.344 440.883C460.034 441.339 460.874 441.566 461.863 441.566C463.1 441.566 464.201 441.404 465.164 441.078C466.128 440.74 467.065 440.271 467.977 439.672V444.77C467.065 445.342 466.108 445.753 465.105 446C464.116 446.26 462.859 446.391 461.336 446.391ZM479.012 415.609V429.203C479.012 430.023 478.979 430.844 478.914 431.664C478.849 432.484 478.777 433.305 478.699 434.125H478.777C479.181 433.552 479.591 432.986 480.008 432.426C480.438 431.866 480.893 431.326 481.375 430.805L487.488 424.164H494.207L485.535 433.637L494.734 446H487.859L481.57 437.152L479.012 439.203V446H473.055V415.609H479.012ZM513.094 439.516C513.094 441 512.742 442.257 512.039 443.285C511.349 444.301 510.314 445.076 508.934 445.609C507.553 446.13 505.835 446.391 503.777 446.391C502.254 446.391 500.945 446.293 499.852 446.098C498.771 445.902 497.677 445.577 496.57 445.121V440.199C497.755 440.733 499.025 441.176 500.379 441.527C501.746 441.866 502.944 442.035 503.973 442.035C505.132 442.035 505.958 441.866 506.453 441.527C506.961 441.176 507.215 440.72 507.215 440.16C507.215 439.796 507.111 439.47 506.902 439.184C506.707 438.884 506.277 438.552 505.613 438.188C504.949 437.81 503.908 437.322 502.488 436.723C501.121 436.15 499.995 435.57 499.109 434.984C498.237 434.398 497.586 433.708 497.156 432.914C496.74 432.107 496.531 431.085 496.531 429.848C496.531 427.829 497.312 426.312 498.875 425.297C500.451 424.268 502.553 423.754 505.184 423.754C506.538 423.754 507.827 423.891 509.051 424.164C510.288 424.438 511.557 424.874 512.859 425.473L511.062 429.77C509.982 429.301 508.96 428.917 507.996 428.617C507.046 428.318 506.076 428.168 505.086 428.168C504.214 428.168 503.556 428.285 503.113 428.52C502.671 428.754 502.449 429.112 502.449 429.594C502.449 429.945 502.56 430.258 502.781 430.531C503.016 430.805 503.458 431.111 504.109 431.449C504.773 431.775 505.743 432.198 507.02 432.719C508.257 433.227 509.331 433.76 510.242 434.32C511.154 434.867 511.857 435.551 512.352 436.371C512.846 437.178 513.094 438.227 513.094 439.516Z" fill="white"/>
</svg>
