<svg width="1142" height="809" viewBox="0 0 1142 809" fill="none" xmlns="http://www.w3.org/2000/svg">
<rect x="725" y="7" width="400" height="400" rx="30" fill="#D3434A"/>
<path d="M1060.33 75L1077.63 65L1060.33 55V75ZM1098.87 48.9C1099.3 50.4666 1099.6 52.5666 1099.8 55.2333C1100.03 57.9 1100.13 60.2 1100.13 62.2L1100.33 65C1100.33 72.3 1099.8 77.6666 1098.87 81.1C1098.03 84.1 1096.1 86.0333 1093.1 86.8666C1091.53 87.3 1088.67 87.6 1084.27 87.8C1079.93 88.0333 1075.97 88.1333 1072.3 88.1333L1067 88.3333C1053.03 88.3333 1044.33 87.8 1040.9 86.8666C1037.9 86.0333 1035.97 84.1 1035.13 81.1C1034.7 79.5333 1034.4 77.4333 1034.2 74.7666C1033.97 72.1 1033.87 69.8 1033.87 67.8L1033.67 65C1033.67 57.7 1034.2 52.3333 1035.13 48.9C1035.97 45.9 1037.9 43.9666 1040.9 43.1333C1042.47 42.7 1045.33 42.4 1049.73 42.2C1054.07 41.9666 1058.03 41.8666 1061.7 41.8666L1067 41.6666C1080.97 41.6666 1089.67 42.2 1093.1 43.1333C1096.1 43.9666 1098.03 45.9 1098.87 48.9Z" fill="#FC8086"/>
<rect x="623" y="57" width="400" height="400" rx="30" fill="#A2D1F1"/>
<path d="M998.333 115C998.333 96.6 983.4 81.6666 965 81.6666C946.6 81.6666 931.667 96.6 931.667 115C931.667 131.133 943.133 144.567 958.333 147.667V125H951.667V115H958.333V106.667C958.333 100.233 963.567 95 970 95H978.333V105H971.667C969.833 105 968.333 106.5 968.333 108.333V115H978.333V125H968.333V148.167C985.167 146.5 998.333 132.3 998.333 115Z" fill="#144264"/>
<rect x="521" y="107" width="400" height="400" rx="30" fill="#157033"/>
<path d="M878.333 144.4C876.055 141.798 874.8 138.458 874.8 135H864.5V176.333C864.422 178.571 863.478 180.69 861.868 182.245C860.257 183.8 858.105 184.668 855.867 184.667C851.133 184.667 847.2 180.8 847.2 176C847.2 170.267 852.733 165.967 858.433 167.733V157.2C846.933 155.667 836.867 164.6 836.867 176C836.867 187.1 846.067 195 855.833 195C866.3 195 874.8 186.5 874.8 176V155.033C878.977 158.033 883.991 159.642 889.133 159.633V149.333C889.133 149.333 882.867 149.633 878.333 144.4Z" fill="#B9E9C5"/>
<rect x="419" y="157" width="400" height="400" rx="30" fill="#E7C9F1"/>
<circle cx="619" cy="292" r="65" fill="#F3E4F8"/>
<path d="M469 431H769" stroke="#F3E4F8" stroke-width="36" stroke-linecap="square"/>
<path d="M747 181.667H775C785.667 181.667 794.333 190.333 794.333 201V229C794.333 234.127 792.297 239.045 788.671 242.671C785.045 246.296 780.128 248.333 775 248.333H747C736.333 248.333 727.667 239.667 727.667 229V201C727.667 195.872 729.704 190.955 733.329 187.329C736.955 183.704 741.873 181.667 747 181.667ZM746.333 188.333C743.151 188.333 740.099 189.598 737.848 191.848C735.598 194.098 734.333 197.151 734.333 200.333V229.667C734.333 236.3 739.7 241.667 746.333 241.667H775.667C778.849 241.667 781.902 240.402 784.152 238.152C786.402 235.901 787.667 232.849 787.667 229.667V200.333C787.667 193.7 782.3 188.333 775.667 188.333H746.333ZM778.5 193.333C779.605 193.333 780.665 193.772 781.446 194.554C782.228 195.335 782.667 196.395 782.667 197.5C782.667 198.605 782.228 199.665 781.446 200.446C780.665 201.228 779.605 201.667 778.5 201.667C777.395 201.667 776.335 201.228 775.554 200.446C774.772 199.665 774.333 198.605 774.333 197.5C774.333 196.395 774.772 195.335 775.554 194.554C776.335 193.772 777.395 193.333 778.5 193.333ZM761 198.333C765.42 198.333 769.66 200.089 772.785 203.215C775.911 206.34 777.667 210.58 777.667 215C777.667 219.42 775.911 223.659 772.785 226.785C769.66 229.911 765.42 231.667 761 231.667C756.58 231.667 752.341 229.911 749.215 226.785C746.089 223.659 744.333 219.42 744.333 215C744.333 210.58 746.089 206.34 749.215 203.215C752.341 200.089 756.58 198.333 761 198.333ZM761 205C758.348 205 755.804 206.054 753.929 207.929C752.054 209.804 751 212.348 751 215C751 217.652 752.054 220.196 753.929 222.071C755.804 223.946 758.348 225 761 225C763.652 225 766.196 223.946 768.071 222.071C769.947 220.196 771 217.652 771 215C771 212.348 769.947 209.804 768.071 207.929C766.196 206.054 763.652 205 761 205Z" fill="#F3E4F8"/>
<rect x="27" y="679" width="612" height="116" rx="8" fill="black" stroke="black" stroke-width="4"/>
<rect x="18" y="670" width="612" height="116" rx="8" fill="white" stroke="black" stroke-width="4"/>
<path d="M159.654 741H154.293V713.648H159.654V741ZM170.658 721.348V741H165.297V721.348H170.658ZM167.986 713.648C168.783 713.648 169.469 713.836 170.043 714.211C170.617 714.574 170.904 715.26 170.904 716.268C170.904 717.264 170.617 717.955 170.043 718.342C169.469 718.717 168.783 718.904 167.986 718.904C167.178 718.904 166.486 718.717 165.912 718.342C165.35 717.955 165.068 717.264 165.068 716.268C165.068 715.26 165.35 714.574 165.912 714.211C166.486 713.836 167.178 713.648 167.986 713.648ZM187.463 720.979C189.561 720.979 191.248 721.553 192.525 722.701C193.803 723.838 194.441 725.666 194.441 728.186V741H189.08V729.521C189.08 728.115 188.822 727.055 188.307 726.34C187.803 725.625 187.006 725.268 185.916 725.268C184.275 725.268 183.156 725.824 182.559 726.938C181.961 728.051 181.662 729.656 181.662 731.754V741H176.301V721.348H180.396L181.117 723.861H181.416C181.838 723.182 182.359 722.631 182.98 722.209C183.613 721.787 184.311 721.477 185.072 721.277C185.846 721.078 186.643 720.979 187.463 720.979ZM205.322 713.648V725.883C205.322 726.621 205.293 727.359 205.234 728.098C205.176 728.836 205.111 729.574 205.041 730.312H205.111C205.475 729.797 205.844 729.287 206.219 728.783C206.605 728.279 207.016 727.793 207.449 727.324L212.951 721.348H218.998L211.193 729.873L219.473 741H213.285L207.625 733.037L205.322 734.883V741H199.961V713.648H205.322ZM233.447 720.979C235.545 720.979 237.232 721.553 238.51 722.701C239.787 723.838 240.426 725.666 240.426 728.186V741H235.064V729.521C235.064 728.115 234.807 727.055 234.291 726.34C233.787 725.625 232.99 725.268 231.9 725.268C230.26 725.268 229.141 725.824 228.543 726.938C227.945 728.051 227.646 729.656 227.646 731.754V741H222.285V721.348H226.381L227.102 723.861H227.4C227.822 723.182 228.344 722.631 228.965 722.209C229.598 721.787 230.295 721.477 231.057 721.277C231.83 721.078 232.627 720.979 233.447 720.979ZM251.307 713.648V720.012C251.307 720.75 251.283 721.482 251.236 722.209C251.201 722.936 251.154 723.498 251.096 723.896H251.307C251.822 723.088 252.525 722.402 253.416 721.84C254.307 721.266 255.461 720.979 256.879 720.979C259.082 720.979 260.869 721.84 262.24 723.562C263.611 725.285 264.297 727.811 264.297 731.139C264.297 733.377 263.98 735.258 263.348 736.781C262.715 738.293 261.83 739.436 260.693 740.209C259.557 740.971 258.238 741.352 256.738 741.352C255.297 741.352 254.16 741.094 253.328 740.578C252.496 740.062 251.822 739.482 251.307 738.838H250.938L250.041 741H245.945V713.648H251.307ZM255.156 725.268C254.219 725.268 253.475 725.461 252.924 725.848C252.373 726.234 251.969 726.814 251.711 727.588C251.465 728.361 251.33 729.34 251.307 730.523V731.104C251.307 733.014 251.588 734.479 252.15 735.498C252.713 736.506 253.738 737.01 255.227 737.01C256.328 737.01 257.201 736.5 257.846 735.48C258.502 734.461 258.83 732.99 258.83 731.068C258.83 729.146 258.502 727.699 257.846 726.727C257.189 725.754 256.293 725.268 255.156 725.268ZM274.088 721.348V741H268.727V721.348H274.088ZM271.416 713.648C272.213 713.648 272.898 713.836 273.473 714.211C274.047 714.574 274.334 715.26 274.334 716.268C274.334 717.264 274.047 717.955 273.473 718.342C272.898 718.717 272.213 718.904 271.416 718.904C270.607 718.904 269.916 718.717 269.342 718.342C268.779 717.955 268.498 717.264 268.498 716.268C268.498 715.26 268.779 714.574 269.342 714.211C269.916 713.836 270.607 713.648 271.416 713.648ZM297.59 731.139C297.59 732.779 297.367 734.232 296.922 735.498C296.488 736.764 295.85 737.836 295.006 738.715C294.174 739.582 293.166 740.238 291.982 740.684C290.811 741.129 289.486 741.352 288.01 741.352C286.627 741.352 285.355 741.129 284.195 740.684C283.047 740.238 282.045 739.582 281.189 738.715C280.346 737.836 279.689 736.764 279.221 735.498C278.764 734.232 278.535 732.779 278.535 731.139C278.535 728.959 278.922 727.113 279.695 725.602C280.469 724.09 281.57 722.941 283 722.156C284.43 721.371 286.135 720.979 288.115 720.979C289.955 720.979 291.584 721.371 293.002 722.156C294.432 722.941 295.551 724.09 296.359 725.602C297.18 727.113 297.59 728.959 297.59 731.139ZM284.002 731.139C284.002 732.428 284.143 733.512 284.424 734.391C284.705 735.27 285.145 735.932 285.742 736.377C286.34 736.822 287.119 737.045 288.08 737.045C289.029 737.045 289.797 736.822 290.383 736.377C290.98 735.932 291.414 735.27 291.684 734.391C291.965 733.512 292.105 732.428 292.105 731.139C292.105 729.838 291.965 728.76 291.684 727.904C291.414 727.037 290.98 726.387 290.383 725.953C289.785 725.52 289.006 725.303 288.045 725.303C286.627 725.303 285.596 725.789 284.951 726.762C284.318 727.734 284.002 729.193 284.002 731.139ZM301.264 738.486C301.264 737.385 301.562 736.611 302.16 736.166C302.77 735.721 303.502 735.498 304.357 735.498C305.189 735.498 305.904 735.721 306.502 736.166C307.111 736.611 307.416 737.385 307.416 738.486C307.416 739.541 307.111 740.303 306.502 740.771C305.904 741.24 305.189 741.475 304.357 741.475C303.502 741.475 302.77 741.24 302.16 740.771C301.562 740.303 301.264 739.541 301.264 738.486ZM320.336 720.943C322.973 720.943 324.994 721.518 326.4 722.666C327.807 723.814 328.51 725.561 328.51 727.904V741H324.766L323.729 738.328H323.588C323.025 739.031 322.451 739.605 321.865 740.051C321.279 740.496 320.605 740.824 319.844 741.035C319.082 741.246 318.156 741.352 317.066 741.352C315.906 741.352 314.863 741.129 313.938 740.684C313.023 740.238 312.303 739.559 311.775 738.645C311.248 737.719 310.984 736.547 310.984 735.129C310.984 733.043 311.717 731.508 313.182 730.523C314.646 729.527 316.844 728.977 319.773 728.871L323.184 728.766V727.904C323.184 726.873 322.914 726.117 322.375 725.637C321.836 725.156 321.086 724.916 320.125 724.916C319.176 724.916 318.244 725.051 317.33 725.32C316.416 725.59 315.502 725.93 314.588 726.34L312.812 722.719C313.855 722.168 315.021 721.734 316.311 721.418C317.611 721.102 318.953 720.943 320.336 720.943ZM323.184 731.895L321.109 731.965C319.375 732.012 318.168 732.322 317.488 732.896C316.82 733.471 316.486 734.227 316.486 735.164C316.486 735.984 316.727 736.57 317.207 736.922C317.688 737.262 318.314 737.432 319.088 737.432C320.236 737.432 321.203 737.092 321.988 736.412C322.785 735.732 323.184 734.766 323.184 733.512V731.895ZM344.98 720.979C347.195 720.979 348.982 721.84 350.342 723.562C351.713 725.285 352.398 727.811 352.398 731.139C352.398 733.365 352.076 735.24 351.432 736.764C350.787 738.275 349.896 739.418 348.76 740.191C347.623 740.965 346.316 741.352 344.84 741.352C343.891 741.352 343.076 741.234 342.396 741C341.717 740.754 341.137 740.443 340.656 740.068C340.176 739.682 339.76 739.271 339.408 738.838H339.127C339.221 739.307 339.291 739.787 339.338 740.279C339.385 740.771 339.408 741.252 339.408 741.721V749.648H334.047V721.348H338.406L339.162 723.896H339.408C339.76 723.369 340.188 722.883 340.691 722.438C341.195 721.992 341.799 721.641 342.502 721.383C343.217 721.113 344.043 720.979 344.98 720.979ZM343.258 725.268C342.32 725.268 341.576 725.461 341.025 725.848C340.475 726.234 340.07 726.814 339.812 727.588C339.566 728.361 339.432 729.34 339.408 730.523V731.104C339.408 732.369 339.525 733.441 339.76 734.32C340.006 735.199 340.41 735.867 340.973 736.324C341.547 736.781 342.332 737.01 343.328 737.01C344.148 737.01 344.822 736.781 345.35 736.324C345.877 735.867 346.27 735.199 346.527 734.32C346.797 733.43 346.932 732.346 346.932 731.068C346.932 729.146 346.633 727.699 346.035 726.727C345.438 725.754 344.512 725.268 343.258 725.268ZM367.762 720.979C369.977 720.979 371.764 721.84 373.123 723.562C374.494 725.285 375.18 727.811 375.18 731.139C375.18 733.365 374.857 735.24 374.213 736.764C373.568 738.275 372.678 739.418 371.541 740.191C370.404 740.965 369.098 741.352 367.621 741.352C366.672 741.352 365.857 741.234 365.178 741C364.498 740.754 363.918 740.443 363.438 740.068C362.957 739.682 362.541 739.271 362.189 738.838H361.908C362.002 739.307 362.072 739.787 362.119 740.279C362.166 740.771 362.189 741.252 362.189 741.721V749.648H356.828V721.348H361.188L361.943 723.896H362.189C362.541 723.369 362.969 722.883 363.473 722.438C363.977 721.992 364.58 721.641 365.283 721.383C365.998 721.113 366.824 720.979 367.762 720.979ZM366.039 725.268C365.102 725.268 364.357 725.461 363.807 725.848C363.256 726.234 362.852 726.814 362.594 727.588C362.348 728.361 362.213 729.34 362.189 730.523V731.104C362.189 732.369 362.307 733.441 362.541 734.32C362.787 735.199 363.191 735.867 363.754 736.324C364.328 736.781 365.113 737.01 366.109 737.01C366.93 737.01 367.604 736.781 368.131 736.324C368.658 735.867 369.051 735.199 369.309 734.32C369.578 733.43 369.713 732.346 369.713 731.068C369.713 729.146 369.414 727.699 368.816 726.727C368.219 725.754 367.293 725.268 366.039 725.268ZM391.492 715.301L381.912 741H377.043L386.623 715.301H391.492ZM391.668 721.348H397.539L401.248 732.404C401.365 732.756 401.465 733.113 401.547 733.477C401.629 733.84 401.699 734.215 401.758 734.602C401.816 734.988 401.863 735.393 401.898 735.814H402.004C402.074 735.182 402.168 734.59 402.285 734.039C402.414 733.488 402.572 732.943 402.76 732.404L406.398 721.348H412.146L403.832 743.514C403.328 744.873 402.672 746.004 401.863 746.906C401.055 747.82 400.123 748.506 399.068 748.963C398.025 749.42 396.877 749.648 395.623 749.648C395.014 749.648 394.486 749.613 394.041 749.543C393.596 749.484 393.215 749.42 392.898 749.35V745.096C393.145 745.154 393.455 745.207 393.83 745.254C394.205 745.301 394.598 745.324 395.008 745.324C395.758 745.324 396.402 745.166 396.941 744.85C397.48 744.533 397.932 744.105 398.295 743.566C398.658 743.039 398.945 742.459 399.156 741.826L399.473 740.859L391.668 721.348ZM432.836 731.139C432.836 732.779 432.613 734.232 432.168 735.498C431.734 736.764 431.096 737.836 430.252 738.715C429.42 739.582 428.412 740.238 427.229 740.684C426.057 741.129 424.732 741.352 423.256 741.352C421.873 741.352 420.602 741.129 419.441 740.684C418.293 740.238 417.291 739.582 416.436 738.715C415.592 737.836 414.936 736.764 414.467 735.498C414.01 734.232 413.781 732.779 413.781 731.139C413.781 728.959 414.168 727.113 414.941 725.602C415.715 724.09 416.816 722.941 418.246 722.156C419.676 721.371 421.381 720.979 423.361 720.979C425.201 720.979 426.83 721.371 428.248 722.156C429.678 722.941 430.797 724.09 431.605 725.602C432.426 727.113 432.836 728.959 432.836 731.139ZM419.248 731.139C419.248 732.428 419.389 733.512 419.67 734.391C419.951 735.27 420.391 735.932 420.988 736.377C421.586 736.822 422.365 737.045 423.326 737.045C424.275 737.045 425.043 736.822 425.629 736.377C426.227 735.932 426.66 735.27 426.93 734.391C427.211 733.512 427.352 732.428 427.352 731.139C427.352 729.838 427.211 728.76 426.93 727.904C426.66 727.037 426.227 726.387 425.629 725.953C425.031 725.52 424.252 725.303 423.291 725.303C421.873 725.303 420.842 725.789 420.197 726.762C419.564 727.734 419.248 729.193 419.248 731.139ZM455.301 721.348V741H451.188L450.467 738.486H450.186C449.764 739.154 449.236 739.699 448.604 740.121C447.971 740.543 447.273 740.854 446.512 741.053C445.75 741.252 444.959 741.352 444.139 741.352C442.732 741.352 441.508 741.105 440.465 740.613C439.422 740.109 438.607 739.33 438.021 738.275C437.447 737.221 437.16 735.85 437.16 734.162V721.348H442.521V732.826C442.521 734.232 442.773 735.293 443.277 736.008C443.781 736.723 444.584 737.08 445.686 737.08C446.775 737.08 447.631 736.834 448.252 736.342C448.873 735.838 449.307 735.105 449.553 734.145C449.811 733.172 449.939 731.988 449.939 730.594V721.348H455.301ZM471.895 720.979C472.164 720.979 472.475 720.996 472.826 721.031C473.189 721.055 473.482 721.09 473.705 721.137L473.301 726.164C473.125 726.105 472.873 726.064 472.545 726.041C472.229 726.006 471.953 725.988 471.719 725.988C471.027 725.988 470.354 726.076 469.697 726.252C469.053 726.428 468.473 726.715 467.957 727.113C467.441 727.5 467.031 728.016 466.727 728.66C466.434 729.293 466.287 730.072 466.287 730.998V741H460.926V721.348H464.986L465.777 724.652H466.041C466.428 723.984 466.908 723.375 467.482 722.824C468.068 722.262 468.73 721.816 469.469 721.488C470.219 721.148 471.027 720.979 471.895 720.979ZM488.436 720.979C490.533 720.979 492.221 721.553 493.498 722.701C494.775 723.838 495.414 725.666 495.414 728.186V741H490.053V729.521C490.053 728.115 489.795 727.055 489.279 726.34C488.775 725.625 487.979 725.268 486.889 725.268C485.248 725.268 484.129 725.824 483.531 726.938C482.934 728.051 482.635 729.656 482.635 731.754V741H477.273V721.348H481.369L482.09 723.861H482.389C482.811 723.182 483.332 722.631 483.953 722.209C484.586 721.787 485.283 721.477 486.045 721.277C486.818 721.078 487.615 720.979 488.436 720.979ZM508.984 720.943C511.621 720.943 513.643 721.518 515.049 722.666C516.455 723.814 517.158 725.561 517.158 727.904V741H513.414L512.377 738.328H512.236C511.674 739.031 511.1 739.605 510.514 740.051C509.928 740.496 509.254 740.824 508.492 741.035C507.73 741.246 506.805 741.352 505.715 741.352C504.555 741.352 503.512 741.129 502.586 740.684C501.672 740.238 500.951 739.559 500.424 738.645C499.896 737.719 499.633 736.547 499.633 735.129C499.633 733.043 500.365 731.508 501.83 730.523C503.295 729.527 505.492 728.977 508.422 728.871L511.832 728.766V727.904C511.832 726.873 511.562 726.117 511.023 725.637C510.484 725.156 509.734 724.916 508.773 724.916C507.824 724.916 506.893 725.051 505.979 725.32C505.064 725.59 504.15 725.93 503.236 726.34L501.461 722.719C502.504 722.168 503.67 721.734 504.959 721.418C506.26 721.102 507.602 720.943 508.984 720.943ZM511.832 731.895L509.758 731.965C508.023 732.012 506.816 732.322 506.137 732.896C505.469 733.471 505.135 734.227 505.135 735.164C505.135 735.984 505.375 736.57 505.855 736.922C506.336 737.262 506.963 737.432 507.736 737.432C508.885 737.432 509.852 737.092 510.637 736.412C511.434 735.732 511.832 734.766 511.832 733.512V731.895ZM545.775 720.979C548.002 720.979 549.684 721.553 550.82 722.701C551.969 723.838 552.543 725.666 552.543 728.186V741H547.164V729.521C547.164 728.115 546.924 727.055 546.443 726.34C545.963 725.625 545.219 725.268 544.211 725.268C542.793 725.268 541.785 725.777 541.188 726.797C540.59 727.805 540.291 729.252 540.291 731.139V741H534.93V729.521C534.93 728.584 534.824 727.799 534.613 727.166C534.402 726.533 534.08 726.059 533.646 725.742C533.213 725.426 532.656 725.268 531.977 725.268C530.98 725.268 530.195 725.52 529.621 726.023C529.059 726.516 528.654 727.248 528.408 728.221C528.174 729.182 528.057 730.359 528.057 731.754V741H522.695V721.348H526.791L527.512 723.861H527.811C528.209 723.182 528.707 722.631 529.305 722.209C529.914 721.787 530.582 721.477 531.309 721.277C532.035 721.078 532.773 720.979 533.523 720.979C534.965 720.979 536.184 721.213 537.18 721.682C538.188 722.15 538.961 722.877 539.5 723.861H539.975C540.561 722.854 541.387 722.121 542.453 721.664C543.531 721.207 544.639 720.979 545.775 720.979ZM566.166 720.979C567.982 720.979 569.547 721.33 570.859 722.033C572.172 722.725 573.186 723.732 573.9 725.057C574.615 726.381 574.973 727.998 574.973 729.908V732.51H562.299C562.357 734.021 562.809 735.211 563.652 736.078C564.508 736.934 565.691 737.361 567.203 737.361C568.457 737.361 569.605 737.232 570.648 736.975C571.691 736.717 572.764 736.33 573.865 735.814V739.963C572.893 740.443 571.873 740.795 570.807 741.018C569.752 741.24 568.469 741.352 566.957 741.352C564.988 741.352 563.242 740.988 561.719 740.262C560.207 739.535 559.018 738.428 558.15 736.939C557.295 735.451 556.867 733.576 556.867 731.314C556.867 729.018 557.254 727.107 558.027 725.584C558.812 724.049 559.902 722.9 561.297 722.139C562.691 721.365 564.314 720.979 566.166 720.979ZM566.201 724.793C565.158 724.793 564.291 725.127 563.6 725.795C562.92 726.463 562.527 727.512 562.422 728.941H569.945C569.934 728.145 569.787 727.436 569.506 726.814C569.236 726.193 568.826 725.701 568.275 725.338C567.736 724.975 567.045 724.793 566.201 724.793Z" fill="black"/>
<path d="M85.1413 720.985L93.6266 730C95.0035 731.444 96.0981 733.162 96.8473 735.057C97.5965 736.952 97.9856 738.986 97.992 741.041C97.9985 743.096 97.6223 745.132 96.8851 747.032C96.1478 748.932 95.0641 750.659 93.6963 752.112C92.3286 753.565 90.7038 754.717 88.9154 755.5C87.1271 756.283 85.2106 756.683 83.2763 756.676C81.342 756.669 79.4281 756.256 77.6447 755.46C75.8614 754.664 74.2439 753.501 72.8853 752.038L70.0586 749.035C69.6764 748.643 69.3715 748.174 69.1616 747.656C68.9518 747.137 68.8412 746.58 68.8363 746.015C68.8314 745.451 68.9324 744.891 69.1333 744.369C69.3342 743.846 69.631 743.372 70.0064 742.973C70.3818 742.573 70.8282 742.258 71.3197 742.044C71.8112 741.83 72.3379 741.722 72.869 741.726C73.4001 741.731 73.925 741.848 74.4132 742.071C74.9013 742.293 75.3428 742.617 75.712 743.022L78.544 746.029C79.7963 747.347 81.4891 748.085 83.2522 748.081C85.0152 748.076 86.7049 747.33 87.9514 746.005C89.1979 744.68 89.8997 742.885 89.9033 741.012C89.9069 739.139 89.212 737.34 87.9706 736.01L79.4853 726.994C78.5682 726.019 77.4032 725.35 76.1333 725.068C74.8634 724.786 73.5437 724.904 72.336 725.408C71.9057 725.589 71.5022 725.774 71.1253 725.963L69.888 726.578C68.2346 727.371 66.9626 727.711 65.344 725.994C63.0186 723.523 63.6213 721.243 66.456 719.166C69.2797 717.101 72.6948 716.153 76.1082 716.485C79.5216 716.817 82.7176 718.409 85.1413 720.985ZM69.1146 703.956L71.9413 706.96C72.6703 707.761 73.074 708.834 73.0653 709.949C73.0567 711.063 72.6365 712.129 71.8952 712.917C71.1539 713.706 70.1509 714.153 69.1021 714.163C68.0533 714.174 67.0427 713.746 66.288 712.972L63.4586 709.969C62.8438 709.292 62.1083 708.752 61.2951 708.381C60.4818 708.009 59.6071 707.814 58.7219 707.805C57.8367 707.797 56.9588 707.976 56.1394 708.332C55.32 708.687 54.5755 709.213 53.9494 709.878C53.3232 710.543 52.828 711.334 52.4926 712.204C52.1571 713.074 51.9882 714.007 51.9956 714.948C52.0031 715.888 52.1867 716.818 52.5359 717.682C52.8851 718.546 53.3927 719.328 54.0293 719.982L62.5146 728.997C63.4318 729.972 64.5967 730.642 65.8666 730.923C67.1365 731.205 68.4562 731.087 69.664 730.584C70.0942 730.403 70.4977 730.218 70.8746 730.029L72.112 729.414C73.7653 728.621 75.04 728.281 76.656 729.998C78.9813 732.468 78.3786 734.749 75.544 736.826C72.7202 738.89 69.3051 739.839 65.8917 739.506C62.4783 739.174 59.2823 737.582 56.8586 735.007L48.3733 725.991C46.9964 724.548 45.9018 722.829 45.1526 720.934C44.4034 719.039 44.0144 717.006 44.0079 714.951C44.0014 712.896 44.3776 710.859 45.1149 708.959C45.8521 707.059 46.9358 705.333 48.3036 703.879C49.6714 702.426 51.2962 701.275 53.0845 700.491C54.8728 699.708 56.7893 699.308 58.7236 699.315C60.6579 699.322 62.5718 699.736 64.3552 700.532C66.1385 701.328 67.7561 702.493 69.1146 703.956Z" fill="black"/>
<path d="M308 668C308 676.837 315.163 684 324 684C332.837 684 340 676.837 340 668C340 659.163 332.837 652 324 652C315.163 652 308 659.163 308 668ZM622.522 449.283C621.298 448.167 619.4 448.254 618.283 449.478L600.089 469.427C598.972 470.651 599.059 472.549 600.283 473.665C601.508 474.782 603.405 474.694 604.522 473.47L620.695 455.738L638.427 471.911C639.651 473.028 641.549 472.941 642.665 471.717C643.782 470.492 643.694 468.595 642.47 467.478L622.522 449.283ZM326.821 669.021C334.551 647.672 345.017 632.504 357.302 621.698C369.59 610.889 383.844 604.317 399.333 600.376C430.534 592.437 466.134 595.249 500.364 595.375C534.178 595.5 566.788 592.987 590.035 573.256C613.424 553.404 626.511 516.917 623.497 451.362L617.503 451.638C620.489 516.583 607.388 550.658 586.152 568.682C564.775 586.826 534.322 589.5 500.386 589.375C466.866 589.251 430.028 586.375 397.854 594.561C381.656 598.683 366.488 605.627 353.339 617.193C340.186 628.762 329.199 644.828 321.179 666.979L326.821 669.021Z" fill="black"/>
</svg>
