<svg width="938" height="599" viewBox="0 0 938 599" fill="none" xmlns="http://www.w3.org/2000/svg">
<rect x="540" y="2" width="396" height="396" rx="28" fill="#F19FA7" stroke="black" stroke-width="4"/>
<path d="M873.333 68L890.633 58L873.333 48V68ZM911.867 41.9C912.3 43.4667 912.6 45.5667 912.8 48.2333C913.033 50.9 913.133 53.2 913.133 55.2L913.333 58C913.333 65.3 912.8 70.6667 911.867 74.1C911.033 77.1 909.1 79.0333 906.1 79.8667C904.533 80.3 901.667 80.6 897.267 80.8C892.933 81.0333 888.967 81.1333 885.3 81.1333L880 81.3333C866.033 81.3333 857.333 80.8 853.9 79.8667C850.9 79.0333 848.967 77.1 848.133 74.1C847.7 72.5333 847.4 70.4333 847.2 67.7667C846.967 65.1 846.867 62.8 846.867 60.8L846.667 58C846.667 50.7 847.2 45.3333 848.133 41.9C848.967 38.9 850.9 36.9667 853.9 36.1333C855.467 35.7 858.333 35.4 862.733 35.2C867.067 34.9667 871.033 34.8667 874.7 34.8667L880 34.6667C893.967 34.6667 902.667 35.2 906.1 36.1333C909.1 36.9667 911.033 38.9 911.867 41.9Z" fill="black"/>
<rect x="438" y="52" width="396" height="396" rx="28" fill="#F7E5FF" stroke="black" stroke-width="4"/>
<path d="M811.333 108C811.333 89.6 796.4 74.6667 778 74.6667C759.6 74.6667 744.667 89.6 744.667 108C744.667 124.133 756.133 137.567 771.333 140.667V118H764.667V108H771.333V99.6667C771.333 93.2333 776.567 88 783 88H791.333V98H784.667C782.833 98 781.333 99.5 781.333 101.333V108H791.333V118H781.333V141.167C798.167 139.5 811.333 125.3 811.333 108Z" fill="black"/>
<rect x="336" y="102" width="396" height="396" rx="28" fill="#C2CBFE" stroke="black" stroke-width="4"/>
<path d="M691.333 137.4C689.055 134.798 687.8 131.458 687.8 128H677.5V169.333C677.422 171.571 676.478 173.69 674.868 175.245C673.257 176.8 671.105 177.668 668.867 177.667C664.133 177.667 660.2 173.8 660.2 169C660.2 163.267 665.733 158.967 671.433 160.733V150.2C659.933 148.667 649.867 157.6 649.867 169C649.867 180.1 659.067 188 668.833 188C679.3 188 687.8 179.5 687.8 169V148.033C691.977 151.033 696.991 152.642 702.133 152.633V142.333C702.133 142.333 695.867 142.633 691.333 137.4Z" fill="black"/>
<rect x="234" y="152" width="396" height="396" rx="28" fill="white" stroke="black" stroke-width="4"/>
<circle cx="432" cy="285" r="65" fill="#DCD9D9"/>
<path d="M282 389H582" stroke="#DCD9D9" stroke-width="24" stroke-linecap="round"/>
<path d="M282 438H582" stroke="#DCD9D9" stroke-width="24" stroke-linecap="round"/>
<path d="M560 174.667H588C598.667 174.667 607.333 183.333 607.333 194V222C607.333 227.128 605.296 232.045 601.671 235.671C598.045 239.296 593.128 241.333 588 241.333H560C549.333 241.333 540.667 232.667 540.667 222V194C540.667 188.872 542.704 183.955 546.329 180.329C549.955 176.704 554.872 174.667 560 174.667ZM559.333 181.333C556.151 181.333 553.098 182.598 550.848 184.848C548.598 187.098 547.333 190.151 547.333 193.333V222.667C547.333 229.3 552.7 234.667 559.333 234.667H588.667C591.849 234.667 594.902 233.402 597.152 231.152C599.402 228.902 600.667 225.849 600.667 222.667V193.333C600.667 186.7 595.3 181.333 588.667 181.333H559.333ZM591.5 186.333C592.605 186.333 593.665 186.772 594.446 187.554C595.228 188.335 595.667 189.395 595.667 190.5C595.667 191.605 595.228 192.665 594.446 193.446C593.665 194.228 592.605 194.667 591.5 194.667C590.395 194.667 589.335 194.228 588.554 193.446C587.772 192.665 587.333 191.605 587.333 190.5C587.333 189.395 587.772 188.335 588.554 187.554C589.335 186.772 590.395 186.333 591.5 186.333ZM574 191.333C578.42 191.333 582.659 193.089 585.785 196.215C588.911 199.34 590.667 203.58 590.667 208C590.667 212.42 588.911 216.659 585.785 219.785C582.659 222.911 578.42 224.667 574 224.667C569.58 224.667 565.34 222.911 562.215 219.785C559.089 216.659 557.333 212.42 557.333 208C557.333 203.58 559.089 199.34 562.215 196.215C565.34 193.089 569.58 191.333 574 191.333ZM574 198C571.348 198 568.804 199.054 566.929 200.929C565.054 202.804 564 205.348 564 208C564 210.652 565.054 213.196 566.929 215.071C568.804 216.946 571.348 218 574 218C576.652 218 579.196 216.946 581.071 215.071C582.946 213.196 584 210.652 584 208C584 205.348 582.946 202.804 581.071 200.929C579.196 199.054 576.652 198 574 198Z" fill="black"/>
<rect x="2" y="502" width="578" height="95" rx="47.5" fill="white" stroke="black" stroke-width="4"/>
<path d="M65.3418 563H59.9805V535.648H65.3418V563ZM76.3457 543.348V563H70.9844V543.348H76.3457ZM73.6738 535.648C74.4707 535.648 75.1562 535.836 75.7305 536.211C76.3047 536.574 76.5918 537.26 76.5918 538.268C76.5918 539.264 76.3047 539.955 75.7305 540.342C75.1562 540.717 74.4707 540.904 73.6738 540.904C72.8652 540.904 72.1738 540.717 71.5996 540.342C71.0371 539.955 70.7559 539.264 70.7559 538.268C70.7559 537.26 71.0371 536.574 71.5996 536.211C72.1738 535.836 72.8652 535.648 73.6738 535.648ZM93.1504 542.979C95.248 542.979 96.9355 543.553 98.2129 544.701C99.4902 545.838 100.129 547.666 100.129 550.186V563H94.7676V551.521C94.7676 550.115 94.5098 549.055 93.9941 548.34C93.4902 547.625 92.6934 547.268 91.6035 547.268C89.9629 547.268 88.8438 547.824 88.2461 548.938C87.6484 550.051 87.3496 551.656 87.3496 553.754V563H81.9883V543.348H86.084L86.8047 545.861H87.1035C87.5254 545.182 88.0469 544.631 88.668 544.209C89.3008 543.787 89.998 543.477 90.7598 543.277C91.5332 543.078 92.3301 542.979 93.1504 542.979ZM111.01 535.648V547.883C111.01 548.621 110.98 549.359 110.922 550.098C110.863 550.836 110.799 551.574 110.729 552.312H110.799C111.162 551.797 111.531 551.287 111.906 550.783C112.293 550.279 112.703 549.793 113.137 549.324L118.639 543.348H124.686L116.881 551.873L125.16 563H118.973L113.312 555.037L111.01 556.883V563H105.648V535.648H111.01ZM139.135 542.979C141.232 542.979 142.92 543.553 144.197 544.701C145.475 545.838 146.113 547.666 146.113 550.186V563H140.752V551.521C140.752 550.115 140.494 549.055 139.979 548.34C139.475 547.625 138.678 547.268 137.588 547.268C135.947 547.268 134.828 547.824 134.23 548.938C133.633 550.051 133.334 551.656 133.334 553.754V563H127.973V543.348H132.068L132.789 545.861H133.088C133.51 545.182 134.031 544.631 134.652 544.209C135.285 543.787 135.982 543.477 136.744 543.277C137.518 543.078 138.314 542.979 139.135 542.979ZM156.994 535.648V542.012C156.994 542.75 156.971 543.482 156.924 544.209C156.889 544.936 156.842 545.498 156.783 545.896H156.994C157.51 545.088 158.213 544.402 159.104 543.84C159.994 543.266 161.148 542.979 162.566 542.979C164.77 542.979 166.557 543.84 167.928 545.562C169.299 547.285 169.984 549.811 169.984 553.139C169.984 555.377 169.668 557.258 169.035 558.781C168.402 560.293 167.518 561.436 166.381 562.209C165.244 562.971 163.926 563.352 162.426 563.352C160.984 563.352 159.848 563.094 159.016 562.578C158.184 562.062 157.51 561.482 156.994 560.838H156.625L155.729 563H151.633V535.648H156.994ZM160.844 547.268C159.906 547.268 159.162 547.461 158.611 547.848C158.061 548.234 157.656 548.814 157.398 549.588C157.152 550.361 157.018 551.34 156.994 552.523V553.104C156.994 555.014 157.275 556.479 157.838 557.498C158.4 558.506 159.426 559.01 160.914 559.01C162.016 559.01 162.889 558.5 163.533 557.48C164.189 556.461 164.518 554.99 164.518 553.068C164.518 551.146 164.189 549.699 163.533 548.727C162.877 547.754 161.98 547.268 160.844 547.268ZM179.775 543.348V563H174.414V543.348H179.775ZM177.104 535.648C177.9 535.648 178.586 535.836 179.16 536.211C179.734 536.574 180.021 537.26 180.021 538.268C180.021 539.264 179.734 539.955 179.16 540.342C178.586 540.717 177.9 540.904 177.104 540.904C176.295 540.904 175.604 540.717 175.029 540.342C174.467 539.955 174.186 539.264 174.186 538.268C174.186 537.26 174.467 536.574 175.029 536.211C175.604 535.836 176.295 535.648 177.104 535.648ZM203.277 553.139C203.277 554.779 203.055 556.232 202.609 557.498C202.176 558.764 201.537 559.836 200.693 560.715C199.861 561.582 198.854 562.238 197.67 562.684C196.498 563.129 195.174 563.352 193.697 563.352C192.314 563.352 191.043 563.129 189.883 562.684C188.734 562.238 187.732 561.582 186.877 560.715C186.033 559.836 185.377 558.764 184.908 557.498C184.451 556.232 184.223 554.779 184.223 553.139C184.223 550.959 184.609 549.113 185.383 547.602C186.156 546.09 187.258 544.941 188.688 544.156C190.117 543.371 191.822 542.979 193.803 542.979C195.643 542.979 197.271 543.371 198.689 544.156C200.119 544.941 201.238 546.09 202.047 547.602C202.867 549.113 203.277 550.959 203.277 553.139ZM189.689 553.139C189.689 554.428 189.83 555.512 190.111 556.391C190.393 557.27 190.832 557.932 191.43 558.377C192.027 558.822 192.807 559.045 193.768 559.045C194.717 559.045 195.484 558.822 196.07 558.377C196.668 557.932 197.102 557.27 197.371 556.391C197.652 555.512 197.793 554.428 197.793 553.139C197.793 551.838 197.652 550.76 197.371 549.904C197.102 549.037 196.668 548.387 196.07 547.953C195.473 547.52 194.693 547.303 193.732 547.303C192.314 547.303 191.283 547.789 190.639 548.762C190.006 549.734 189.689 551.193 189.689 553.139ZM206.951 560.486C206.951 559.385 207.25 558.611 207.848 558.166C208.457 557.721 209.189 557.498 210.045 557.498C210.877 557.498 211.592 557.721 212.189 558.166C212.799 558.611 213.104 559.385 213.104 560.486C213.104 561.541 212.799 562.303 212.189 562.771C211.592 563.24 210.877 563.475 210.045 563.475C209.189 563.475 208.457 563.24 207.848 562.771C207.25 562.303 206.951 561.541 206.951 560.486ZM225.953 563.352C224.008 563.352 222.35 563 220.979 562.297C219.607 561.582 218.564 560.48 217.85 558.992C217.135 557.504 216.777 555.6 216.777 553.279C216.777 550.877 217.182 548.92 217.99 547.408C218.811 545.885 219.941 544.766 221.383 544.051C222.836 543.336 224.518 542.979 226.428 542.979C227.787 542.979 228.959 543.113 229.943 543.383C230.939 543.641 231.807 543.951 232.545 544.314L230.963 548.463C230.119 548.123 229.334 547.848 228.607 547.637C227.881 547.414 227.154 547.303 226.428 547.303C225.49 547.303 224.711 547.525 224.09 547.971C223.469 548.404 223.006 549.061 222.701 549.939C222.396 550.818 222.244 551.92 222.244 553.244C222.244 554.545 222.408 555.623 222.736 556.479C223.064 557.334 223.539 557.973 224.16 558.395C224.781 558.805 225.537 559.01 226.428 559.01C227.541 559.01 228.531 558.863 229.398 558.57C230.266 558.266 231.109 557.844 231.93 557.305V561.893C231.109 562.408 230.248 562.777 229.346 563C228.455 563.234 227.324 563.352 225.953 563.352ZM254.359 553.139C254.359 554.779 254.137 556.232 253.691 557.498C253.258 558.764 252.619 559.836 251.775 560.715C250.943 561.582 249.936 562.238 248.752 562.684C247.58 563.129 246.256 563.352 244.779 563.352C243.396 563.352 242.125 563.129 240.965 562.684C239.816 562.238 238.814 561.582 237.959 560.715C237.115 559.836 236.459 558.764 235.99 557.498C235.533 556.232 235.305 554.779 235.305 553.139C235.305 550.959 235.691 549.113 236.465 547.602C237.238 546.09 238.34 544.941 239.77 544.156C241.199 543.371 242.904 542.979 244.885 542.979C246.725 542.979 248.354 543.371 249.771 544.156C251.201 544.941 252.32 546.09 253.129 547.602C253.949 549.113 254.359 550.959 254.359 553.139ZM240.771 553.139C240.771 554.428 240.912 555.512 241.193 556.391C241.475 557.27 241.914 557.932 242.512 558.377C243.109 558.822 243.889 559.045 244.85 559.045C245.799 559.045 246.566 558.822 247.152 558.377C247.75 557.932 248.184 557.27 248.453 556.391C248.734 555.512 248.875 554.428 248.875 553.139C248.875 551.838 248.734 550.76 248.453 549.904C248.184 549.037 247.75 548.387 247.152 547.953C246.555 547.52 245.775 547.303 244.814 547.303C243.396 547.303 242.365 547.789 241.721 548.762C241.088 549.734 240.771 551.193 240.771 553.139ZM281.869 542.979C284.096 542.979 285.777 543.553 286.914 544.701C288.062 545.838 288.637 547.666 288.637 550.186V563H283.258V551.521C283.258 550.115 283.018 549.055 282.537 548.34C282.057 547.625 281.312 547.268 280.305 547.268C278.887 547.268 277.879 547.777 277.281 548.797C276.684 549.805 276.385 551.252 276.385 553.139V563H271.023V551.521C271.023 550.584 270.918 549.799 270.707 549.166C270.496 548.533 270.174 548.059 269.74 547.742C269.307 547.426 268.75 547.268 268.07 547.268C267.074 547.268 266.289 547.52 265.715 548.023C265.152 548.516 264.748 549.248 264.502 550.221C264.268 551.182 264.15 552.359 264.15 553.754V563H258.789V543.348H262.885L263.605 545.861H263.904C264.303 545.182 264.801 544.631 265.398 544.209C266.008 543.787 266.676 543.477 267.402 543.277C268.129 543.078 268.867 542.979 269.617 542.979C271.059 542.979 272.277 543.213 273.273 543.682C274.281 544.15 275.055 544.877 275.594 545.861H276.068C276.654 544.854 277.48 544.121 278.547 543.664C279.625 543.207 280.732 542.979 281.869 542.979ZM306.039 537.301L296.459 563H291.59L301.17 537.301H306.039ZM322.738 557.164C322.738 558.5 322.422 559.631 321.789 560.557C321.168 561.471 320.236 562.168 318.994 562.648C317.752 563.117 316.205 563.352 314.354 563.352C312.982 563.352 311.805 563.264 310.82 563.088C309.848 562.912 308.863 562.619 307.867 562.209V557.779C308.934 558.26 310.076 558.658 311.295 558.975C312.525 559.279 313.604 559.432 314.529 559.432C315.572 559.432 316.316 559.279 316.762 558.975C317.219 558.658 317.447 558.248 317.447 557.744C317.447 557.416 317.354 557.123 317.166 556.865C316.99 556.596 316.604 556.297 316.006 555.969C315.408 555.629 314.471 555.189 313.193 554.65C311.963 554.135 310.949 553.613 310.152 553.086C309.367 552.559 308.781 551.938 308.395 551.223C308.02 550.496 307.832 549.576 307.832 548.463C307.832 546.646 308.535 545.281 309.941 544.367C311.359 543.441 313.252 542.979 315.619 542.979C316.838 542.979 317.998 543.102 319.1 543.348C320.213 543.594 321.355 543.986 322.527 544.525L320.91 548.393C319.938 547.971 319.018 547.625 318.15 547.355C317.295 547.086 316.422 546.951 315.531 546.951C314.746 546.951 314.154 547.057 313.756 547.268C313.357 547.479 313.158 547.801 313.158 548.234C313.158 548.551 313.258 548.832 313.457 549.078C313.668 549.324 314.066 549.6 314.652 549.904C315.25 550.197 316.123 550.578 317.271 551.047C318.385 551.504 319.352 551.984 320.172 552.488C320.992 552.98 321.625 553.596 322.07 554.334C322.516 555.061 322.738 556.004 322.738 557.164ZM338.805 537.301L329.225 563H324.355L333.936 537.301H338.805ZM338.98 543.348H344.852L348.561 554.404C348.678 554.756 348.777 555.113 348.859 555.477C348.941 555.84 349.012 556.215 349.07 556.602C349.129 556.988 349.176 557.393 349.211 557.814H349.316C349.387 557.182 349.48 556.59 349.598 556.039C349.727 555.488 349.885 554.943 350.072 554.404L353.711 543.348H359.459L351.145 565.514C350.641 566.873 349.984 568.004 349.176 568.906C348.367 569.82 347.436 570.506 346.381 570.963C345.338 571.42 344.189 571.648 342.936 571.648C342.326 571.648 341.799 571.613 341.354 571.543C340.908 571.484 340.527 571.42 340.211 571.35V567.096C340.457 567.154 340.768 567.207 341.143 567.254C341.518 567.301 341.91 567.324 342.32 567.324C343.07 567.324 343.715 567.166 344.254 566.85C344.793 566.533 345.244 566.105 345.607 565.566C345.971 565.039 346.258 564.459 346.469 563.826L346.785 562.859L338.98 543.348ZM380.148 553.139C380.148 554.779 379.926 556.232 379.48 557.498C379.047 558.764 378.408 559.836 377.564 560.715C376.732 561.582 375.725 562.238 374.541 562.684C373.369 563.129 372.045 563.352 370.568 563.352C369.186 563.352 367.914 563.129 366.754 562.684C365.605 562.238 364.604 561.582 363.748 560.715C362.904 559.836 362.248 558.764 361.779 557.498C361.322 556.232 361.094 554.779 361.094 553.139C361.094 550.959 361.48 549.113 362.254 547.602C363.027 546.09 364.129 544.941 365.559 544.156C366.988 543.371 368.693 542.979 370.674 542.979C372.514 542.979 374.143 543.371 375.561 544.156C376.99 544.941 378.109 546.09 378.918 547.602C379.738 549.113 380.148 550.959 380.148 553.139ZM366.561 553.139C366.561 554.428 366.701 555.512 366.982 556.391C367.264 557.27 367.703 557.932 368.301 558.377C368.898 558.822 369.678 559.045 370.639 559.045C371.588 559.045 372.355 558.822 372.941 558.377C373.539 557.932 373.973 557.27 374.242 556.391C374.523 555.512 374.664 554.428 374.664 553.139C374.664 551.838 374.523 550.76 374.242 549.904C373.973 549.037 373.539 548.387 372.941 547.953C372.344 547.52 371.564 547.303 370.604 547.303C369.186 547.303 368.154 547.789 367.51 548.762C366.877 549.734 366.561 551.193 366.561 553.139ZM402.613 543.348V563H398.5L397.779 560.486H397.498C397.076 561.154 396.549 561.699 395.916 562.121C395.283 562.543 394.586 562.854 393.824 563.053C393.062 563.252 392.271 563.352 391.451 563.352C390.045 563.352 388.82 563.105 387.777 562.613C386.734 562.109 385.92 561.33 385.334 560.275C384.76 559.221 384.473 557.85 384.473 556.162V543.348H389.834V554.826C389.834 556.232 390.086 557.293 390.59 558.008C391.094 558.723 391.896 559.08 392.998 559.08C394.088 559.08 394.943 558.834 395.564 558.342C396.186 557.838 396.619 557.105 396.865 556.145C397.123 555.172 397.252 553.988 397.252 552.594V543.348H402.613ZM419.207 542.979C419.477 542.979 419.787 542.996 420.139 543.031C420.502 543.055 420.795 543.09 421.018 543.137L420.613 548.164C420.438 548.105 420.186 548.064 419.857 548.041C419.541 548.006 419.266 547.988 419.031 547.988C418.34 547.988 417.666 548.076 417.01 548.252C416.365 548.428 415.785 548.715 415.27 549.113C414.754 549.5 414.344 550.016 414.039 550.66C413.746 551.293 413.6 552.072 413.6 552.998V563H408.238V543.348H412.299L413.09 546.652H413.354C413.74 545.984 414.221 545.375 414.795 544.824C415.381 544.262 416.043 543.816 416.781 543.488C417.531 543.148 418.34 542.979 419.207 542.979ZM435.748 542.979C437.846 542.979 439.533 543.553 440.811 544.701C442.088 545.838 442.727 547.666 442.727 550.186V563H437.365V551.521C437.365 550.115 437.107 549.055 436.592 548.34C436.088 547.625 435.291 547.268 434.201 547.268C432.561 547.268 431.441 547.824 430.844 548.938C430.246 550.051 429.947 551.656 429.947 553.754V563H424.586V543.348H428.682L429.402 545.861H429.701C430.123 545.182 430.645 544.631 431.266 544.209C431.898 543.787 432.596 543.477 433.357 543.277C434.131 543.078 434.928 542.979 435.748 542.979ZM456.297 542.943C458.934 542.943 460.955 543.518 462.361 544.666C463.768 545.814 464.471 547.561 464.471 549.904V563H460.727L459.689 560.328H459.549C458.986 561.031 458.412 561.605 457.826 562.051C457.24 562.496 456.566 562.824 455.805 563.035C455.043 563.246 454.117 563.352 453.027 563.352C451.867 563.352 450.824 563.129 449.898 562.684C448.984 562.238 448.264 561.559 447.736 560.645C447.209 559.719 446.945 558.547 446.945 557.129C446.945 555.043 447.678 553.508 449.143 552.523C450.607 551.527 452.805 550.977 455.734 550.871L459.145 550.766V549.904C459.145 548.873 458.875 548.117 458.336 547.637C457.797 547.156 457.047 546.916 456.086 546.916C455.137 546.916 454.205 547.051 453.291 547.32C452.377 547.59 451.463 547.93 450.549 548.34L448.773 544.719C449.816 544.168 450.982 543.734 452.271 543.418C453.572 543.102 454.914 542.943 456.297 542.943ZM459.145 553.895L457.07 553.965C455.336 554.012 454.129 554.322 453.449 554.896C452.781 555.471 452.447 556.227 452.447 557.164C452.447 557.984 452.688 558.57 453.168 558.922C453.648 559.262 454.275 559.432 455.049 559.432C456.197 559.432 457.164 559.092 457.949 558.412C458.746 557.732 459.145 556.766 459.145 555.512V553.895ZM493.088 542.979C495.314 542.979 496.996 543.553 498.133 544.701C499.281 545.838 499.855 547.666 499.855 550.186V563H494.477V551.521C494.477 550.115 494.236 549.055 493.756 548.34C493.275 547.625 492.531 547.268 491.523 547.268C490.105 547.268 489.098 547.777 488.5 548.797C487.902 549.805 487.604 551.252 487.604 553.139V563H482.242V551.521C482.242 550.584 482.137 549.799 481.926 549.166C481.715 548.533 481.393 548.059 480.959 547.742C480.525 547.426 479.969 547.268 479.289 547.268C478.293 547.268 477.508 547.52 476.934 548.023C476.371 548.516 475.967 549.248 475.721 550.221C475.486 551.182 475.369 552.359 475.369 553.754V563H470.008V543.348H474.104L474.824 545.861H475.123C475.521 545.182 476.02 544.631 476.617 544.209C477.227 543.787 477.895 543.477 478.621 543.277C479.348 543.078 480.086 542.979 480.836 542.979C482.277 542.979 483.496 543.213 484.492 543.682C485.5 544.15 486.273 544.877 486.812 545.861H487.287C487.873 544.854 488.699 544.121 489.766 543.664C490.844 543.207 491.951 542.979 493.088 542.979ZM513.479 542.979C515.295 542.979 516.859 543.33 518.172 544.033C519.484 544.725 520.498 545.732 521.213 547.057C521.928 548.381 522.285 549.998 522.285 551.908V554.51H509.611C509.67 556.021 510.121 557.211 510.965 558.078C511.82 558.934 513.004 559.361 514.516 559.361C515.77 559.361 516.918 559.232 517.961 558.975C519.004 558.717 520.076 558.33 521.178 557.814V561.963C520.205 562.443 519.186 562.795 518.119 563.018C517.064 563.24 515.781 563.352 514.27 563.352C512.301 563.352 510.555 562.988 509.031 562.262C507.52 561.535 506.33 560.428 505.463 558.939C504.607 557.451 504.18 555.576 504.18 553.314C504.18 551.018 504.566 549.107 505.34 547.584C506.125 546.049 507.215 544.9 508.609 544.139C510.004 543.365 511.627 542.979 513.479 542.979ZM513.514 546.793C512.471 546.793 511.604 547.127 510.912 547.795C510.232 548.463 509.84 549.512 509.734 550.941H517.258C517.246 550.145 517.1 549.436 516.818 548.814C516.549 548.193 516.139 547.701 515.588 547.338C515.049 546.975 514.357 546.793 513.514 546.793Z" fill="black"/>
</svg>
