<svg width="1142" height="809" viewBox="0 0 1142 809" fill="none" xmlns="http://www.w3.org/2000/svg">
<rect x="725" y="7" width="400" height="400" rx="30" fill="#D3434A"/>
<path d="M1060.33 75L1077.63 65L1060.33 55V75ZM1098.87 48.9C1099.3 50.4666 1099.6 52.5666 1099.8 55.2333C1100.03 57.9 1100.13 60.2 1100.13 62.2L1100.33 65C1100.33 72.3 1099.8 77.6666 1098.87 81.1C1098.03 84.1 1096.1 86.0333 1093.1 86.8666C1091.53 87.3 1088.67 87.6 1084.27 87.8C1079.93 88.0333 1075.97 88.1333 1072.3 88.1333L1067 88.3333C1053.03 88.3333 1044.33 87.8 1040.9 86.8666C1037.9 86.0333 1035.97 84.1 1035.13 81.1C1034.7 79.5333 1034.4 77.4333 1034.2 74.7666C1033.97 72.1 1033.87 69.8 1033.87 67.8L1033.67 65C1033.67 57.7 1034.2 52.3333 1035.13 48.9C1035.97 45.9 1037.9 43.9666 1040.9 43.1333C1042.47 42.7 1045.33 42.4 1049.73 42.2C1054.07 41.9666 1058.03 41.8666 1061.7 41.8666L1067 41.6666C1080.97 41.6666 1089.67 42.2 1093.1 43.1333C1096.1 43.9666 1098.03 45.9 1098.87 48.9Z" fill="#FC8086"/>
<rect x="623" y="57" width="400" height="400" rx="30" fill="#A2D1F1"/>
<path d="M998.333 115C998.333 96.6 983.4 81.6666 965 81.6666C946.6 81.6666 931.667 96.6 931.667 115C931.667 131.133 943.133 144.567 958.333 147.667V125H951.667V115H958.333V106.667C958.333 100.233 963.567 95 970 95H978.333V105H971.667C969.833 105 968.333 106.5 968.333 108.333V115H978.333V125H968.333V148.167C985.167 146.5 998.333 132.3 998.333 115Z" fill="#144264"/>
<rect x="521" y="107" width="400" height="400" rx="30" fill="#157033"/>
<path d="M878.333 144.4C876.055 141.798 874.8 138.458 874.8 135H864.5V176.333C864.422 178.571 863.478 180.69 861.868 182.245C860.257 183.8 858.105 184.668 855.867 184.667C851.133 184.667 847.2 180.8 847.2 176C847.2 170.267 852.733 165.967 858.433 167.733V157.2C846.933 155.667 836.867 164.6 836.867 176C836.867 187.1 846.067 195 855.833 195C866.3 195 874.8 186.5 874.8 176V155.033C878.977 158.033 883.991 159.642 889.133 159.633V149.333C889.133 149.333 882.867 149.633 878.333 144.4Z" fill="#B9E9C5"/>
<rect x="419" y="157" width="400" height="400" rx="30" fill="#E7C9F1"/>
<circle cx="619" cy="292" r="65" fill="#F3E4F8"/>
<path d="M469 431H769" stroke="#F3E4F8" stroke-width="36" stroke-linecap="square"/>
<path d="M747 181.667H775C785.667 181.667 794.333 190.333 794.333 201V229C794.333 234.127 792.296 239.045 788.671 242.671C785.045 246.296 780.127 248.333 775 248.333H747C736.333 248.333 727.667 239.667 727.667 229V201C727.667 195.872 729.704 190.955 733.329 187.329C736.955 183.704 741.872 181.667 747 181.667ZM746.333 188.333C743.151 188.333 740.098 189.598 737.848 191.848C735.598 194.098 734.333 197.151 734.333 200.333V229.667C734.333 236.3 739.7 241.667 746.333 241.667H775.667C778.849 241.667 781.901 240.402 784.152 238.152C786.402 235.901 787.667 232.849 787.667 229.667V200.333C787.667 193.7 782.3 188.333 775.667 188.333H746.333ZM778.5 193.333C779.605 193.333 780.665 193.772 781.446 194.554C782.228 195.335 782.667 196.395 782.667 197.5C782.667 198.605 782.228 199.665 781.446 200.446C780.665 201.228 779.605 201.667 778.5 201.667C777.395 201.667 776.335 201.228 775.554 200.446C774.772 199.665 774.333 198.605 774.333 197.5C774.333 196.395 774.772 195.335 775.554 194.554C776.335 193.772 777.395 193.333 778.5 193.333ZM761 198.333C765.42 198.333 769.659 200.089 772.785 203.215C775.911 206.34 777.667 210.58 777.667 215C777.667 219.42 775.911 223.659 772.785 226.785C769.659 229.911 765.42 231.667 761 231.667C756.58 231.667 752.34 229.911 749.215 226.785C746.089 223.659 744.333 219.42 744.333 215C744.333 210.58 746.089 206.34 749.215 203.215C752.34 200.089 756.58 198.333 761 198.333ZM761 205C758.348 205 755.804 206.054 753.929 207.929C752.054 209.804 751 212.348 751 215C751 217.652 752.054 220.196 753.929 222.071C755.804 223.946 758.348 225 761 225C763.652 225 766.196 223.946 768.071 222.071C769.946 220.196 771 217.652 771 215C771 212.348 769.946 209.804 768.071 207.929C766.196 206.054 763.652 205 761 205Z" fill="#F3E4F8"/>
<rect x="27" y="679" width="612" height="116" rx="8" fill="black" stroke="black" stroke-width="4"/>
<rect x="18" y="670" width="612" height="116" rx="8" fill="white" stroke="black" stroke-width="4"/>
<path d="M138.842 741H133.48V713.648H138.842V741ZM149.846 721.348V741H144.484V721.348H149.846ZM147.174 713.648C147.971 713.648 148.656 713.836 149.23 714.211C149.805 714.574 150.092 715.26 150.092 716.268C150.092 717.264 149.805 717.955 149.23 718.342C148.656 718.717 147.971 718.904 147.174 718.904C146.365 718.904 145.674 718.717 145.1 718.342C144.537 717.955 144.256 717.264 144.256 716.268C144.256 715.26 144.537 714.574 145.1 714.211C145.674 713.836 146.365 713.648 147.174 713.648ZM166.65 720.979C168.748 720.979 170.436 721.553 171.713 722.701C172.99 723.838 173.629 725.666 173.629 728.186V741H168.268V729.521C168.268 728.115 168.01 727.055 167.494 726.34C166.99 725.625 166.193 725.268 165.104 725.268C163.463 725.268 162.344 725.824 161.746 726.938C161.148 728.051 160.85 729.656 160.85 731.754V741H155.488V721.348H159.584L160.305 723.861H160.604C161.025 723.182 161.547 722.631 162.168 722.209C162.801 721.787 163.498 721.477 164.26 721.277C165.033 721.078 165.83 720.979 166.65 720.979ZM184.51 713.648V725.883C184.51 726.621 184.48 727.359 184.422 728.098C184.363 728.836 184.299 729.574 184.229 730.312H184.299C184.662 729.797 185.031 729.287 185.406 728.783C185.793 728.279 186.203 727.793 186.637 727.324L192.139 721.348H198.186L190.381 729.873L198.66 741H192.473L186.812 733.037L184.51 734.883V741H179.148V713.648H184.51ZM212.635 720.979C214.732 720.979 216.42 721.553 217.697 722.701C218.975 723.838 219.613 725.666 219.613 728.186V741H214.252V729.521C214.252 728.115 213.994 727.055 213.479 726.34C212.975 725.625 212.178 725.268 211.088 725.268C209.447 725.268 208.328 725.824 207.73 726.938C207.133 728.051 206.834 729.656 206.834 731.754V741H201.473V721.348H205.568L206.289 723.861H206.588C207.01 723.182 207.531 722.631 208.152 722.209C208.785 721.787 209.482 721.477 210.244 721.277C211.018 721.078 211.814 720.979 212.635 720.979ZM230.494 713.648V720.012C230.494 720.75 230.471 721.482 230.424 722.209C230.389 722.936 230.342 723.498 230.283 723.896H230.494C231.01 723.088 231.713 722.402 232.604 721.84C233.494 721.266 234.648 720.979 236.066 720.979C238.27 720.979 240.057 721.84 241.428 723.562C242.799 725.285 243.484 727.811 243.484 731.139C243.484 733.377 243.168 735.258 242.535 736.781C241.902 738.293 241.018 739.436 239.881 740.209C238.744 740.971 237.426 741.352 235.926 741.352C234.484 741.352 233.348 741.094 232.516 740.578C231.684 740.062 231.01 739.482 230.494 738.838H230.125L229.229 741H225.133V713.648H230.494ZM234.344 725.268C233.406 725.268 232.662 725.461 232.111 725.848C231.561 726.234 231.156 726.814 230.898 727.588C230.652 728.361 230.518 729.34 230.494 730.523V731.104C230.494 733.014 230.775 734.479 231.338 735.498C231.9 736.506 232.926 737.01 234.414 737.01C235.516 737.01 236.389 736.5 237.033 735.48C237.689 734.461 238.018 732.99 238.018 731.068C238.018 729.146 237.689 727.699 237.033 726.727C236.377 725.754 235.48 725.268 234.344 725.268ZM253.275 721.348V741H247.914V721.348H253.275ZM250.604 713.648C251.4 713.648 252.086 713.836 252.66 714.211C253.234 714.574 253.521 715.26 253.521 716.268C253.521 717.264 253.234 717.955 252.66 718.342C252.086 718.717 251.4 718.904 250.604 718.904C249.795 718.904 249.104 718.717 248.529 718.342C247.967 717.955 247.686 717.264 247.686 716.268C247.686 715.26 247.967 714.574 248.529 714.211C249.104 713.836 249.795 713.648 250.604 713.648ZM276.777 731.139C276.777 732.779 276.555 734.232 276.109 735.498C275.676 736.764 275.037 737.836 274.193 738.715C273.361 739.582 272.354 740.238 271.17 740.684C269.998 741.129 268.674 741.352 267.197 741.352C265.814 741.352 264.543 741.129 263.383 740.684C262.234 740.238 261.232 739.582 260.377 738.715C259.533 737.836 258.877 736.764 258.408 735.498C257.951 734.232 257.723 732.779 257.723 731.139C257.723 728.959 258.109 727.113 258.883 725.602C259.656 724.09 260.758 722.941 262.188 722.156C263.617 721.371 265.322 720.979 267.303 720.979C269.143 720.979 270.771 721.371 272.189 722.156C273.619 722.941 274.738 724.09 275.547 725.602C276.367 727.113 276.777 728.959 276.777 731.139ZM263.189 731.139C263.189 732.428 263.33 733.512 263.611 734.391C263.893 735.27 264.332 735.932 264.93 736.377C265.527 736.822 266.307 737.045 267.268 737.045C268.217 737.045 268.984 736.822 269.57 736.377C270.168 735.932 270.602 735.27 270.871 734.391C271.152 733.512 271.293 732.428 271.293 731.139C271.293 729.838 271.152 728.76 270.871 727.904C270.602 727.037 270.168 726.387 269.57 725.953C268.973 725.52 268.193 725.303 267.232 725.303C265.814 725.303 264.783 725.789 264.139 726.762C263.506 727.734 263.189 729.193 263.189 731.139ZM280.451 738.486C280.451 737.385 280.75 736.611 281.348 736.166C281.957 735.721 282.689 735.498 283.545 735.498C284.377 735.498 285.092 735.721 285.689 736.166C286.299 736.611 286.604 737.385 286.604 738.486C286.604 739.541 286.299 740.303 285.689 740.771C285.092 741.24 284.377 741.475 283.545 741.475C282.689 741.475 281.957 741.24 281.348 740.771C280.75 740.303 280.451 739.541 280.451 738.486ZM299.453 741.352C297.508 741.352 295.85 741 294.479 740.297C293.107 739.582 292.064 738.48 291.35 736.992C290.635 735.504 290.277 733.6 290.277 731.279C290.277 728.877 290.682 726.92 291.49 725.408C292.311 723.885 293.441 722.766 294.883 722.051C296.336 721.336 298.018 720.979 299.928 720.979C301.287 720.979 302.459 721.113 303.443 721.383C304.439 721.641 305.307 721.951 306.045 722.314L304.463 726.463C303.619 726.123 302.834 725.848 302.107 725.637C301.381 725.414 300.654 725.303 299.928 725.303C298.99 725.303 298.211 725.525 297.59 725.971C296.969 726.404 296.506 727.061 296.201 727.939C295.896 728.818 295.744 729.92 295.744 731.244C295.744 732.545 295.908 733.623 296.236 734.479C296.564 735.334 297.039 735.973 297.66 736.395C298.281 736.805 299.037 737.01 299.928 737.01C301.041 737.01 302.031 736.863 302.898 736.57C303.766 736.266 304.609 735.844 305.43 735.305V739.893C304.609 740.408 303.748 740.777 302.846 741C301.955 741.234 300.824 741.352 299.453 741.352ZM327.859 731.139C327.859 732.779 327.637 734.232 327.191 735.498C326.758 736.764 326.119 737.836 325.275 738.715C324.443 739.582 323.436 740.238 322.252 740.684C321.08 741.129 319.756 741.352 318.279 741.352C316.896 741.352 315.625 741.129 314.465 740.684C313.316 740.238 312.314 739.582 311.459 738.715C310.615 737.836 309.959 736.764 309.49 735.498C309.033 734.232 308.805 732.779 308.805 731.139C308.805 728.959 309.191 727.113 309.965 725.602C310.738 724.09 311.84 722.941 313.27 722.156C314.699 721.371 316.404 720.979 318.385 720.979C320.225 720.979 321.854 721.371 323.271 722.156C324.701 722.941 325.82 724.09 326.629 725.602C327.449 727.113 327.859 728.959 327.859 731.139ZM314.271 731.139C314.271 732.428 314.412 733.512 314.693 734.391C314.975 735.27 315.414 735.932 316.012 736.377C316.609 736.822 317.389 737.045 318.35 737.045C319.299 737.045 320.066 736.822 320.652 736.377C321.25 735.932 321.684 735.27 321.953 734.391C322.234 733.512 322.375 732.428 322.375 731.139C322.375 729.838 322.234 728.76 321.953 727.904C321.684 727.037 321.25 726.387 320.652 725.953C320.055 725.52 319.275 725.303 318.314 725.303C316.896 725.303 315.865 725.789 315.221 726.762C314.588 727.734 314.271 729.193 314.271 731.139ZM355.369 720.979C357.596 720.979 359.277 721.553 360.414 722.701C361.562 723.838 362.137 725.666 362.137 728.186V741H356.758V729.521C356.758 728.115 356.518 727.055 356.037 726.34C355.557 725.625 354.812 725.268 353.805 725.268C352.387 725.268 351.379 725.777 350.781 726.797C350.184 727.805 349.885 729.252 349.885 731.139V741H344.523V729.521C344.523 728.584 344.418 727.799 344.207 727.166C343.996 726.533 343.674 726.059 343.24 725.742C342.807 725.426 342.25 725.268 341.57 725.268C340.574 725.268 339.789 725.52 339.215 726.023C338.652 726.516 338.248 727.248 338.002 728.221C337.768 729.182 337.65 730.359 337.65 731.754V741H332.289V721.348H336.385L337.105 723.861H337.404C337.803 723.182 338.301 722.631 338.898 722.209C339.508 721.787 340.176 721.477 340.902 721.277C341.629 721.078 342.367 720.979 343.117 720.979C344.559 720.979 345.777 721.213 346.773 721.682C347.781 722.15 348.555 722.877 349.094 723.861H349.568C350.154 722.854 350.98 722.121 352.047 721.664C353.125 721.207 354.232 720.979 355.369 720.979ZM379.539 715.301L369.959 741H365.09L374.67 715.301H379.539ZM396.238 735.164C396.238 736.5 395.922 737.631 395.289 738.557C394.668 739.471 393.736 740.168 392.494 740.648C391.252 741.117 389.705 741.352 387.854 741.352C386.482 741.352 385.305 741.264 384.32 741.088C383.348 740.912 382.363 740.619 381.367 740.209V735.779C382.434 736.26 383.576 736.658 384.795 736.975C386.025 737.279 387.104 737.432 388.029 737.432C389.072 737.432 389.816 737.279 390.262 736.975C390.719 736.658 390.947 736.248 390.947 735.744C390.947 735.416 390.854 735.123 390.666 734.865C390.49 734.596 390.104 734.297 389.506 733.969C388.908 733.629 387.971 733.189 386.693 732.65C385.463 732.135 384.449 731.613 383.652 731.086C382.867 730.559 382.281 729.938 381.895 729.223C381.52 728.496 381.332 727.576 381.332 726.463C381.332 724.646 382.035 723.281 383.441 722.367C384.859 721.441 386.752 720.979 389.119 720.979C390.338 720.979 391.498 721.102 392.6 721.348C393.713 721.594 394.855 721.986 396.027 722.525L394.41 726.393C393.438 725.971 392.518 725.625 391.65 725.355C390.795 725.086 389.922 724.951 389.031 724.951C388.246 724.951 387.654 725.057 387.256 725.268C386.857 725.479 386.658 725.801 386.658 726.234C386.658 726.551 386.758 726.832 386.957 727.078C387.168 727.324 387.566 727.6 388.152 727.904C388.75 728.197 389.623 728.578 390.771 729.047C391.885 729.504 392.852 729.984 393.672 730.488C394.492 730.98 395.125 731.596 395.57 732.334C396.016 733.061 396.238 734.004 396.238 735.164ZM412.305 715.301L402.725 741H397.855L407.436 715.301H412.305ZM412.48 721.348H418.352L422.061 732.404C422.178 732.756 422.277 733.113 422.359 733.477C422.441 733.84 422.512 734.215 422.57 734.602C422.629 734.988 422.676 735.393 422.711 735.814H422.816C422.887 735.182 422.98 734.59 423.098 734.039C423.227 733.488 423.385 732.943 423.572 732.404L427.211 721.348H432.959L424.645 743.514C424.141 744.873 423.484 746.004 422.676 746.906C421.867 747.82 420.936 748.506 419.881 748.963C418.838 749.42 417.689 749.648 416.436 749.648C415.826 749.648 415.299 749.613 414.854 749.543C414.408 749.484 414.027 749.42 413.711 749.35V745.096C413.957 745.154 414.268 745.207 414.643 745.254C415.018 745.301 415.41 745.324 415.82 745.324C416.57 745.324 417.215 745.166 417.754 744.85C418.293 744.533 418.744 744.105 419.107 743.566C419.471 743.039 419.758 742.459 419.969 741.826L420.285 740.859L412.48 721.348ZM453.648 731.139C453.648 732.779 453.426 734.232 452.98 735.498C452.547 736.764 451.908 737.836 451.064 738.715C450.232 739.582 449.225 740.238 448.041 740.684C446.869 741.129 445.545 741.352 444.068 741.352C442.686 741.352 441.414 741.129 440.254 740.684C439.105 740.238 438.104 739.582 437.248 738.715C436.404 737.836 435.748 736.764 435.279 735.498C434.822 734.232 434.594 732.779 434.594 731.139C434.594 728.959 434.98 727.113 435.754 725.602C436.527 724.09 437.629 722.941 439.059 722.156C440.488 721.371 442.193 720.979 444.174 720.979C446.014 720.979 447.643 721.371 449.061 722.156C450.49 722.941 451.609 724.09 452.418 725.602C453.238 727.113 453.648 728.959 453.648 731.139ZM440.061 731.139C440.061 732.428 440.201 733.512 440.482 734.391C440.764 735.27 441.203 735.932 441.801 736.377C442.398 736.822 443.178 737.045 444.139 737.045C445.088 737.045 445.855 736.822 446.441 736.377C447.039 735.932 447.473 735.27 447.742 734.391C448.023 733.512 448.164 732.428 448.164 731.139C448.164 729.838 448.023 728.76 447.742 727.904C447.473 727.037 447.039 726.387 446.441 725.953C445.844 725.52 445.064 725.303 444.104 725.303C442.686 725.303 441.654 725.789 441.01 726.762C440.377 727.734 440.061 729.193 440.061 731.139ZM476.113 721.348V741H472L471.279 738.486H470.998C470.576 739.154 470.049 739.699 469.416 740.121C468.783 740.543 468.086 740.854 467.324 741.053C466.562 741.252 465.771 741.352 464.951 741.352C463.545 741.352 462.32 741.105 461.277 740.613C460.234 740.109 459.42 739.33 458.834 738.275C458.26 737.221 457.973 735.85 457.973 734.162V721.348H463.334V732.826C463.334 734.232 463.586 735.293 464.09 736.008C464.594 736.723 465.396 737.08 466.498 737.08C467.588 737.08 468.443 736.834 469.064 736.342C469.686 735.838 470.119 735.105 470.365 734.145C470.623 733.172 470.752 731.988 470.752 730.594V721.348H476.113ZM492.707 720.979C492.977 720.979 493.287 720.996 493.639 721.031C494.002 721.055 494.295 721.09 494.518 721.137L494.113 726.164C493.938 726.105 493.686 726.064 493.357 726.041C493.041 726.006 492.766 725.988 492.531 725.988C491.84 725.988 491.166 726.076 490.51 726.252C489.865 726.428 489.285 726.715 488.77 727.113C488.254 727.5 487.844 728.016 487.539 728.66C487.246 729.293 487.1 730.072 487.1 730.998V741H481.738V721.348H485.799L486.59 724.652H486.854C487.24 723.984 487.721 723.375 488.295 722.824C488.881 722.262 489.543 721.816 490.281 721.488C491.031 721.148 491.84 720.979 492.707 720.979ZM509.248 720.979C511.346 720.979 513.033 721.553 514.311 722.701C515.588 723.838 516.227 725.666 516.227 728.186V741H510.865V729.521C510.865 728.115 510.607 727.055 510.092 726.34C509.588 725.625 508.791 725.268 507.701 725.268C506.061 725.268 504.941 725.824 504.344 726.938C503.746 728.051 503.447 729.656 503.447 731.754V741H498.086V721.348H502.182L502.902 723.861H503.201C503.623 723.182 504.145 722.631 504.766 722.209C505.398 721.787 506.096 721.477 506.857 721.277C507.631 721.078 508.428 720.979 509.248 720.979ZM529.797 720.943C532.434 720.943 534.455 721.518 535.861 722.666C537.268 723.814 537.971 725.561 537.971 727.904V741H534.227L533.189 738.328H533.049C532.486 739.031 531.912 739.605 531.326 740.051C530.74 740.496 530.066 740.824 529.305 741.035C528.543 741.246 527.617 741.352 526.527 741.352C525.367 741.352 524.324 741.129 523.398 740.684C522.484 740.238 521.764 739.559 521.236 738.645C520.709 737.719 520.445 736.547 520.445 735.129C520.445 733.043 521.178 731.508 522.643 730.523C524.107 729.527 526.305 728.977 529.234 728.871L532.645 728.766V727.904C532.645 726.873 532.375 726.117 531.836 725.637C531.297 725.156 530.547 724.916 529.586 724.916C528.637 724.916 527.705 725.051 526.791 725.32C525.877 725.59 524.963 725.93 524.049 726.34L522.273 722.719C523.316 722.168 524.482 721.734 525.771 721.418C527.072 721.102 528.414 720.943 529.797 720.943ZM532.645 731.895L530.57 731.965C528.836 732.012 527.629 732.322 526.949 732.896C526.281 733.471 525.947 734.227 525.947 735.164C525.947 735.984 526.188 736.57 526.668 736.922C527.148 737.262 527.775 737.432 528.549 737.432C529.697 737.432 530.664 737.092 531.449 736.412C532.246 735.732 532.645 734.766 532.645 733.512V731.895ZM566.588 720.979C568.814 720.979 570.496 721.553 571.633 722.701C572.781 723.838 573.355 725.666 573.355 728.186V741H567.977V729.521C567.977 728.115 567.736 727.055 567.256 726.34C566.775 725.625 566.031 725.268 565.023 725.268C563.605 725.268 562.598 725.777 562 726.797C561.402 727.805 561.104 729.252 561.104 731.139V741H555.742V729.521C555.742 728.584 555.637 727.799 555.426 727.166C555.215 726.533 554.893 726.059 554.459 725.742C554.025 725.426 553.469 725.268 552.789 725.268C551.793 725.268 551.008 725.52 550.434 726.023C549.871 726.516 549.467 727.248 549.221 728.221C548.986 729.182 548.869 730.359 548.869 731.754V741H543.508V721.348H547.604L548.324 723.861H548.623C549.021 723.182 549.52 722.631 550.117 722.209C550.727 721.787 551.395 721.477 552.121 721.277C552.848 721.078 553.586 720.979 554.336 720.979C555.777 720.979 556.996 721.213 557.992 721.682C559 722.15 559.773 722.877 560.312 723.861H560.787C561.373 722.854 562.199 722.121 563.266 721.664C564.344 721.207 565.451 720.979 566.588 720.979ZM586.979 720.979C588.795 720.979 590.359 721.33 591.672 722.033C592.984 722.725 593.998 723.732 594.713 725.057C595.428 726.381 595.785 727.998 595.785 729.908V732.51H583.111C583.17 734.021 583.621 735.211 584.465 736.078C585.32 736.934 586.504 737.361 588.016 737.361C589.27 737.361 590.418 737.232 591.461 736.975C592.504 736.717 593.576 736.33 594.678 735.814V739.963C593.705 740.443 592.686 740.795 591.619 741.018C590.564 741.24 589.281 741.352 587.77 741.352C585.801 741.352 584.055 740.988 582.531 740.262C581.02 739.535 579.83 738.428 578.963 736.939C578.107 735.451 577.68 733.576 577.68 731.314C577.68 729.018 578.066 727.107 578.84 725.584C579.625 724.049 580.715 722.9 582.109 722.139C583.504 721.365 585.127 720.979 586.979 720.979ZM587.014 724.793C585.971 724.793 585.104 725.127 584.412 725.795C583.732 726.463 583.34 727.512 583.234 728.941H590.758C590.746 728.145 590.6 727.436 590.318 726.814C590.049 726.193 589.639 725.701 589.088 725.338C588.549 724.975 587.857 724.793 587.014 724.793Z" fill="black"/>
<path d="M85.1413 720.985L93.6266 730C95.0035 731.444 96.0981 733.162 96.8473 735.057C97.5965 736.952 97.9856 738.986 97.992 741.041C97.9985 743.096 97.6223 745.132 96.8851 747.032C96.1478 748.932 95.0641 750.659 93.6963 752.112C92.3286 753.565 90.7038 754.717 88.9154 755.5C87.1271 756.283 85.2106 756.683 83.2763 756.676C81.342 756.669 79.4281 756.256 77.6447 755.46C75.8614 754.664 74.2439 753.501 72.8853 752.038L70.0586 749.035C69.6764 748.643 69.3715 748.174 69.1616 747.656C68.9518 747.137 68.8412 746.58 68.8363 746.015C68.8314 745.451 68.9324 744.891 69.1333 744.369C69.3342 743.846 69.631 743.372 70.0064 742.973C70.3818 742.573 70.8282 742.258 71.3197 742.044C71.8112 741.83 72.3379 741.722 72.869 741.726C73.4001 741.731 73.925 741.848 74.4132 742.071C74.9013 742.293 75.3428 742.617 75.712 743.022L78.544 746.029C79.7963 747.347 81.4891 748.085 83.2522 748.081C85.0152 748.076 86.7049 747.33 87.9514 746.005C89.1979 744.68 89.8997 742.885 89.9033 741.012C89.9069 739.139 89.212 737.34 87.9706 736.01L79.4853 726.994C78.5682 726.019 77.4032 725.35 76.1333 725.068C74.8634 724.786 73.5437 724.904 72.336 725.408C71.9057 725.589 71.5022 725.774 71.1253 725.963L69.888 726.578C68.2346 727.371 66.9626 727.711 65.344 725.994C63.0186 723.523 63.6213 721.243 66.456 719.166C69.2797 717.101 72.6948 716.153 76.1082 716.485C79.5216 716.817 82.7176 718.409 85.1413 720.985ZM69.1146 703.956L71.9413 706.96C72.6703 707.761 73.074 708.834 73.0653 709.949C73.0567 711.063 72.6365 712.129 71.8952 712.917C71.1539 713.706 70.1509 714.153 69.1021 714.163C68.0533 714.174 67.0427 713.746 66.288 712.972L63.4586 709.969C62.8438 709.292 62.1083 708.752 61.2951 708.381C60.4818 708.009 59.6071 707.814 58.7219 707.805C57.8367 707.797 56.9588 707.976 56.1394 708.332C55.32 708.687 54.5755 709.213 53.9494 709.878C53.3232 710.543 52.828 711.334 52.4926 712.204C52.1571 713.074 51.9882 714.007 51.9956 714.948C52.0031 715.888 52.1867 716.818 52.5359 717.682C52.8851 718.546 53.3927 719.328 54.0293 719.982L62.5146 728.997C63.4318 729.972 64.5967 730.642 65.8666 730.923C67.1365 731.205 68.4562 731.087 69.664 730.584C70.0942 730.403 70.4977 730.218 70.8746 730.029L72.112 729.414C73.7653 728.621 75.04 728.281 76.656 729.998C78.9813 732.468 78.3786 734.749 75.544 736.826C72.7202 738.89 69.3051 739.839 65.8917 739.506C62.4783 739.174 59.2823 737.582 56.8586 735.007L48.3733 725.991C46.9964 724.548 45.9018 722.829 45.1526 720.934C44.4034 719.039 44.0144 717.006 44.0079 714.951C44.0014 712.896 44.3776 710.859 45.1149 708.959C45.8521 707.059 46.9358 705.333 48.3036 703.879C49.6714 702.426 51.2962 701.275 53.0845 700.491C54.8728 699.708 56.7893 699.308 58.7236 699.315C60.6579 699.322 62.5718 699.736 64.3552 700.532C66.1385 701.328 67.7561 702.493 69.1146 703.956Z" fill="black"/>
<path d="M308 668C308 676.837 315.163 684 324 684C332.837 684 340 676.837 340 668C340 659.163 332.837 652 324 652C315.163 652 308 659.163 308 668ZM622.522 449.283C621.298 448.167 619.4 448.254 618.283 449.478L600.089 469.427C598.972 470.651 599.059 472.549 600.283 473.665C601.508 474.782 603.405 474.694 604.522 473.47L620.695 455.738L638.427 471.911C639.651 473.028 641.549 472.941 642.665 471.717C643.782 470.492 643.694 468.595 642.47 467.478L622.522 449.283ZM326.821 669.021C334.551 647.672 345.017 632.504 357.302 621.698C369.59 610.889 383.844 604.317 399.333 600.376C430.534 592.437 466.134 595.249 500.364 595.375C534.178 595.5 566.788 592.987 590.035 573.256C613.424 553.404 626.511 516.917 623.497 451.362L617.503 451.638C620.489 516.583 607.388 550.658 586.152 568.682C564.775 586.826 534.322 589.5 500.386 589.375C466.866 589.251 430.028 586.375 397.854 594.561C381.656 598.683 366.488 605.627 353.339 617.193C340.186 628.762 329.199 644.828 321.179 666.979L326.821 669.021Z" fill="black"/>
</svg>
